<svg aria-hidden="true" style="position:absolute;width:0;height:0;overflow:hidden" xmlns="http://www.w3.org/2000/svg">
  <defs>
    <symbol id="icon-comp" viewBox="0 0 32 32">
      <path d="M0 7.5s0-4 4-4h24s4 0 4 4v12s0 4-4 4h-8c0 1.333.167 2.333.5 3H22a.997.997 0 0 1 1 1 .997.997 0 0 1-1 1H10a.997.997 0 0 1-1-1 .997.997 0 0 1 1-1h1.5c.333-.667.5-1.667.5-3H4s-4 0-4-4v-12zm2.796-1.71c-.22.153-.395.361-.508.604A3.013 3.013 0 0 0 2 7.52V19.5c0 .65.156 1.004.29 1.204.14.208.341.377.604.508.338.162.703.259 1.076.286l.05.002H28c.65 0 1.004-.156 1.204-.29.22-.153.395-.361.508-.604.162-.338.259-.703.286-1.076l.002-.05V7.5c0-.65-.156-1.004-.29-1.204a1.511 1.511 0 0 0-.604-.508A3.018 3.018 0 0 0 27.98 5.5H4c-.65 0-1.004.156-1.204.29z"/>
    </symbol>
    <symbol id="icon-four-squares" viewBox="0 0 32 32">
      <path d="M0 3.429A3.428 3.428 0 0 1 3.428.001h6.857a3.428 3.428 0 0 1 3.428 3.428v6.857a3.428 3.428 0 0 1-3.428 3.428H3.428A3.428 3.428 0 0 1 0 10.286V3.429zm3.429-1.143a1.14 1.14 0 0 0-1.143 1.143v6.857a1.14 1.14 0 0 0 1.143 1.143h6.857a1.14 1.14 0 0 0 1.143-1.143V3.429a1.14 1.14 0 0 0-1.143-1.143H3.429zm14.857 1.143A3.428 3.428 0 0 1 21.714.001h6.857a3.428 3.428 0 0 1 3.428 3.428v6.857a3.428 3.428 0 0 1-3.428 3.428h-6.857a3.428 3.428 0 0 1-3.428-3.428V3.429zm3.428-1.143a1.14 1.14 0 0 0-1.143 1.143v6.857a1.14 1.14 0 0 0 1.143 1.143h6.857a1.14 1.14 0 0 0 1.143-1.143V3.429a1.14 1.14 0 0 0-1.143-1.143h-6.857zM0 21.714a3.428 3.428 0 0 1 3.428-3.428h6.857a3.428 3.428 0 0 1 3.428 3.428v6.857a3.428 3.428 0 0 1-3.428 3.428H3.428A3.428 3.428 0 0 1 0 28.571v-6.857zm3.429-1.143a1.14 1.14 0 0 0-1.143 1.143v6.857a1.14 1.14 0 0 0 1.143 1.143h6.857a1.14 1.14 0 0 0 1.143-1.143v-6.857a1.14 1.14 0 0 0-1.143-1.143H3.429zm14.857 1.143a3.428 3.428 0 0 1 3.428-3.428h6.857a3.428 3.428 0 0 1 3.428 3.428v6.857a3.428 3.428 0 0 1-3.428 3.428h-6.857a3.428 3.428 0 0 1-3.428-3.428v-6.857zm3.428-1.143a1.14 1.14 0 0 0-1.143 1.143v6.857a1.14 1.14 0 0 0 1.143 1.143h6.857a1.14 1.14 0 0 0 1.143-1.143v-6.857a1.14 1.14 0 0 0-1.143-1.143h-6.857z"/>
    </symbol>
    <symbol id="icon-frige" viewBox="0 0 32 32">
      <path d="M16.08.711h-.159c-2.614 0-4.685 0-6.305.218-1.667.225-3.017.697-4.082 1.761C4.47 3.755 3.998 5.105 3.773 6.772c-.218 1.621-.218 3.691-.218 6.305v4.426c0 2.614 0 4.685.218 6.305.225 1.667.697 3.017 1.761 4.082.654.653 1.414 1.082 2.288 1.37v.964c0 .589.478 1.067 1.067 1.067h1.422a1.066 1.066 0 0 0 1.066-1.066v-.421c1.29.065 2.795.065 4.543.065h.159c1.749 0 3.253 0 4.543-.065v.421c0 .589.478 1.067 1.067 1.067h1.422a1.066 1.066 0 0 0 1.066-1.066v-.964c.875-.287 1.636-.717 2.288-1.37 1.064-1.065 1.536-2.415 1.761-4.082.218-1.621.218-3.691.218-6.305V13.08c0-2.614 0-4.685-.218-6.305-.225-1.667-.697-3.017-1.761-4.082C25.4 1.629 24.05 1.157 22.383.932 20.762.714 18.692.714 16.078.714zM7.043 4.198c.602-.602 1.426-.963 2.857-1.155 1.462-.196 3.388-.199 6.1-.199s4.639.003 6.101.199c1.429.192 2.254.553 2.856 1.155s.963 1.426 1.155 2.857c.196 1.462.199 3.388.199 6.1v1.067H5.689v-1.067c0-2.712.003-4.638.199-6.101.192-1.429.553-2.254 1.155-2.856zM5.689 16.356h20.622v1.067c0 2.712-.003 4.639-.199 6.101-.192 1.429-.553 2.254-1.155 2.856s-1.426.963-2.857 1.155c-1.462.196-3.388.199-6.1.199s-4.638-.003-6.101-.199c-1.429-.192-2.254-.553-2.856-1.155s-.963-1.426-1.155-2.857c-.196-1.461-.199-3.388-.199-6.1v-1.067z"/>
    </symbol>
    <symbol id="icon-gas" viewBox="0 0 32 32">
      <path stroke-linejoin="round" stroke-linecap="round" stroke-width="2.56" d="M7.467 25.956h5.689m11.377.012v-.013M1.778 7.467c0-4.708.981-5.689 5.689-5.689h17.067c4.708 0 5.689.981 5.689 5.689v17.067c0 4.708-.981 5.689-5.689 5.689H7.467c-4.708 0-5.689-.981-5.689-5.689V7.467z"/>
      <path stroke-linejoin="round" stroke-linecap="round" stroke-width="2.56" d="M16 18.844a5.689 5.689 0 1 0 0-11.378 5.689 5.689 0 0 0 0 11.378zM20.978 13.156h2.133M16 18.133v2.133m-4.978-7.11H8.889M16 8.178V6.045"/>
    </symbol>
    <symbol id="icon-heart-black" viewBox="0 0 32 32">
      <path d="m16 13.139-1.788-3.578c-.444-.886-1.214-2.16-2.304-3.19C10.836 5.357 9.552 4.667 8 4.667c-3.352 0-6 2.652-6 5.84 0 2.422 1.108 4.132 3.736 6.74.674.668 1.442 1.39 2.292 2.186C10.244 21.513 13 24.101 16 27.561c3-3.46 5.756-6.048 7.972-8.128.85-.796 1.62-1.52 2.292-2.186C28.892 14.639 30 12.929 30 10.507c0-3.188-2.648-5.84-6-5.84-1.554 0-2.836.69-3.908 1.704-1.09 1.03-1.86 2.304-2.304 3.19L16 13.139zm.784 16.584a1.022 1.022 0 0 1-1.216.269 1.04 1.04 0 0 1-.352-.269c-3.202-3.804-6.1-6.524-8.486-8.762C2.6 17.083 0 14.645 0 10.507c0-4.33 3.58-7.84 8-7.84 3.2 0 5.438 2.1 6.808 4.016.52.73.916 1.432 1.192 1.984.346-.691.745-1.354 1.192-1.984C18.562 4.765 20.8 2.667 24 2.667c4.42 0 8 3.51 8 7.84 0 4.138-2.6 6.576-6.73 10.454-2.386 2.24-5.284 4.962-8.486 8.762z"/>
    </symbol>
    <symbol id="icon-heart-red" viewBox="0 0 32 32">
      <path fill="#e44848" style="fill:var(--color1, #e44848)" d="m16 13.139-1.788-3.578c-.444-.886-1.214-2.16-2.304-3.19C10.836 5.357 9.552 4.667 8 4.667c-3.352 0-6 2.652-6 5.84 0 2.422 1.108 4.132 3.736 6.74.674.668 1.442 1.39 2.292 2.186C10.244 21.513 13 24.101 16 27.561c3-3.46 5.756-6.048 7.972-8.128.85-.796 1.62-1.52 2.292-2.186C28.892 14.639 30 12.929 30 10.507c0-3.188-2.648-5.84-6-5.84-1.554 0-2.836.69-3.908 1.704-1.09 1.03-1.86 2.304-2.304 3.19L16 13.139zm.784 16.584a1.022 1.022 0 0 1-1.216.269 1.04 1.04 0 0 1-.352-.269c-3.202-3.804-6.1-6.524-8.486-8.762C2.6 17.083 0 14.645 0 10.507c0-4.33 3.58-7.84 8-7.84 3.2 0 5.438 2.1 6.808 4.016.52.73.916 1.432 1.192 1.984.346-.691.745-1.354 1.192-1.984C18.562 4.765 20.8 2.667 24 2.667c4.42 0 8 3.51 8 7.84 0 4.138-2.6 6.576-6.73 10.454-2.386 2.24-5.284 4.962-8.486 8.762z"/>
    </symbol>
    <symbol id="icon-microwave" viewBox="0 0 32 32">
      <path stroke-linejoin="round" stroke-linecap="round" stroke-width="2.133" d="M27.378 4.089H4.622a2.844 2.844 0 0 0-2.844 2.844v15.644a2.844 2.844 0 0 0 2.844 2.844h22.756a2.844 2.844 0 0 0 2.844-2.844V6.933a2.844 2.844 0 0 0-2.844-2.844z"/>
      <path stroke-linejoin="round" stroke-linecap="round" stroke-width="2.133" d="M17.422 9.778H8.889c-.785 0-1.422.637-1.422 1.422v7.111c0 .785.637 1.422 1.422 1.422h8.533c.785 0 1.422-.637 1.422-1.422V11.2c0-.785-.637-1.422-1.422-1.422zM24.533 9.778v9.956M7.467 25.422v2.844m17.066-2.844v2.844"/>
    </symbol>
    <symbol id="icon-nine-squares" viewBox="0 0 32 32">
      <path d="M6.857 2.286v4.571H2.286V2.286h4.571zm2.286 27.428v-4.571a2.287 2.287 0 0 0-2.285-2.285H2.287a2.287 2.287 0 0 0-2.285 2.285v4.571a2.287 2.287 0 0 0 2.285 2.285h4.571a2.287 2.287 0 0 0 2.285-2.285zm0-11.428v-4.571a2.287 2.287 0 0 0-2.285-2.285H2.287a2.287 2.287 0 0 0-2.285 2.285v4.571a2.287 2.287 0 0 0 2.285 2.285h4.571a2.287 2.287 0 0 0 2.285-2.285zm0-11.429V2.286A2.287 2.287 0 0 0 6.858.001H2.287A2.287 2.287 0 0 0 .002 2.286v4.571a2.287 2.287 0 0 0 2.285 2.285h4.571a2.287 2.287 0 0 0 2.285-2.285zm11.428 22.857v-4.571a2.287 2.287 0 0 0-2.285-2.285h-4.571a2.287 2.287 0 0 0-2.285 2.285v4.571a2.287 2.287 0 0 0 2.285 2.285h4.571a2.287 2.287 0 0 0 2.285-2.285zm0-11.428v-4.571a2.287 2.287 0 0 0-2.285-2.285h-4.571a2.287 2.287 0 0 0-2.285 2.285v4.571a2.287 2.287 0 0 0 2.285 2.285h4.571a2.287 2.287 0 0 0 2.285-2.285zm0-11.429V2.286A2.287 2.287 0 0 0 18.286.001h-4.571a2.287 2.287 0 0 0-2.285 2.285v4.571a2.287 2.287 0 0 0 2.285 2.285h4.571a2.287 2.287 0 0 0 2.285-2.285zm-2.285-4.571v4.571h-4.571V2.286h4.571zm11.428 0v4.571h-4.571V2.286h4.571zM6.857 13.714v4.571H2.286v-4.571h4.571zm11.429 0v4.571h-4.571v-4.571h4.571zm11.428 0h-4.571v4.571h4.571v-4.571zM6.857 25.143v4.571H2.286v-4.571h4.571zm11.429 0v4.571h-4.571v-4.571h4.571zm11.428 0v4.571h-4.571v-4.571h4.571zM25.143 0a2.287 2.287 0 0 0-2.285 2.285v4.571a2.287 2.287 0 0 0 2.285 2.285h4.571a2.287 2.287 0 0 0 2.285-2.285V2.285A2.287 2.287 0 0 0 29.714 0h-4.571zm-2.286 13.714a2.287 2.287 0 0 1 2.285-2.285h4.571a2.287 2.287 0 0 1 2.285 2.285v4.571a2.287 2.287 0 0 1-2.285 2.285h-4.571a2.287 2.287 0 0 1-2.285-2.285v-4.571zm2.286 9.143a2.287 2.287 0 0 0-2.285 2.285v4.571a2.287 2.287 0 0 0 2.285 2.285h4.571a2.287 2.287 0 0 0 2.285-2.285v-4.571a2.287 2.287 0 0 0-2.285-2.285h-4.571z"/>
    </symbol>
    <symbol id="icon-scheme" viewBox="0 0 32 32">
      <path d="M12 7a3.004 3.004 0 0 1 3-3h2a3.004 3.004 0 0 1 3 3v2a3.004 3.004 0 0 1-3 3v2h11a.997.997 0 0 1 1 1v2a.997.997 0 0 1-1 1 .997.997 0 0 1-1-1v-1H17v1a.997.997 0 0 1-1 1 .997.997 0 0 1-1-1v-1H5v1a.997.997 0 0 1-1 1 .997.997 0 0 1-1-1v-2a.997.997 0 0 1 1-1h11v-2a3.004 3.004 0 0 1-3-3V7zm5 3a.997.997 0 0 0 1-1V7a.997.997 0 0 0-1-1h-2a.997.997 0 0 0-1 1v2a.997.997 0 0 0 1 1h2zM0 23a3.004 3.004 0 0 1 3-3h2a3.004 3.004 0 0 1 3 3v2a3.004 3.004 0 0 1-3 3H3a3.004 3.004 0 0 1-3-3v-2zm3-1a.997.997 0 0 0-1 1v2a.997.997 0 0 0 1 1h2a.997.997 0 0 0 1-1v-2a.997.997 0 0 0-1-1H3zm9 1a3.004 3.004 0 0 1 3-3h2a3.004 3.004 0 0 1 3 3v2a3.004 3.004 0 0 1-3 3h-2a3.004 3.004 0 0 1-3-3v-2zm3-1a.997.997 0 0 0-1 1v2a.997.997 0 0 0 1 1h2a.997.997 0 0 0 1-1v-2a.997.997 0 0 0-1-1h-2zm9 1a3.004 3.004 0 0 1 3-3h2a3.004 3.004 0 0 1 3 3v2a3.004 3.004 0 0 1-3 3h-2a3.004 3.004 0 0 1-3-3v-2zm3-1a.997.997 0 0 0-1 1v2a.997.997 0 0 0 1 1h2a.997.997 0 0 0 1-1v-2a.997.997 0 0 0-1-1h-2z"/>
    </symbol>
    <symbol id="icon-shower" viewBox="0 0 32 32">
      <path d="M7.226 28.387a1.548 1.548 0 0 1-3.068.301 1.55 1.55 0 1 1 3.067-.303zm2.58-5.677a1.548 1.548 0 0 0-.301 3.068 1.549 1.549 0 1 0 .303-3.066zm-8.258 0a1.548 1.548 0 0 0-.301 3.068 1.549 1.549 0 1 0 .302-3.066zm4.129-4.129a1.548 1.548 0 0 0-.301 3.068 1.549 1.549 0 1 0 .302-3.066zM32 3.097a1.035 1.035 0 0 1-1.032 1.032h-3.702l-3.593 3.595-2.795 16.36a2.07 2.07 0 0 1-2.523 1.663 2.062 2.062 0 0 1-.973-.546L4.737 12.556A2.062 2.062 0 0 1 5.858 9.06l16.354-2.796 3.897-3.897a1.037 1.037 0 0 1 .73-.302h4.129A1.029 1.029 0 0 1 32 3.097zM21.447 8.489 6.194 11.097l12.645 12.645 2.608-15.253z"/>
    </symbol>
    <symbol id="icon-star" viewBox="0 0 32 32">
      <path fill="#f2f4f7" style="fill:var(--color2, #f2f4f7)" d="M15.116 2.676a1 1 0 0 1 1.769 0l3.777 7.158c.145.274.408.466.714.519l7.975 1.38a1 1 0 0 1 .547 1.682l-5.641 5.804a1 1 0 0 0-.273.839l1.152 8.01a1 1 0 0 1-1.431 1.04l-7.263-3.571a.998.998 0 0 0-.882 0l-7.262 3.571a1 1 0 0 1-1.431-1.04l1.152-8.01a1 1 0 0 0-.273-.839l-5.64-5.804a1 1 0 0 1 .547-1.682l7.974-1.38a.998.998 0 0 0 .714-.519l3.776-7.158z"/>
    </symbol>
    <symbol id="icon-star-gold" viewBox="0 0 32 32">
      <path fill="#ffc531" style="fill:var(--color3, #ffc531)" d="M15.116 1.676a1 1 0 0 1 1.769 0l3.777 7.158c.145.274.408.466.714.519l7.975 1.38a1 1 0 0 1 .547 1.682l-5.641 5.804a1 1 0 0 0-.273.839l1.152 8.01a1 1 0 0 1-1.431 1.04l-7.263-3.571a.998.998 0 0 0-.882 0l-7.262 3.571a1 1 0 0 1-1.431-1.04l1.152-8.01a1 1 0 0 0-.273-.839l-5.64-5.804a1 1 0 0 1 .547-1.682l7.974-1.38a.998.998 0 0 0 .714-.519l3.776-7.158z"/>
    </symbol>
    <symbol id="icon-tea" viewBox="0 0 32 32">
      <path d="M1 12a1.007 1.007 0 0 0-.779.374.997.997 0 0 0-.197.842l3.304 14.868A4.998 4.998 0 0 0 8.208 32h11.584a4.996 4.996 0 0 0 4.88-3.916l.262-1.18a6 6 0 0 0 2.601-11.708l.442-1.98A1.003 1.003 0 0 0 27.001 12h-26zm25 13a4.05 4.05 0 0 1-.632-.05l1.734-7.796A4.002 4.002 0 0 1 26 25zM5.28 27.65 2.246 14h23.508L22.72 27.65A2.995 2.995 0 0 1 19.792 30H8.208a2.998 2.998 0 0 1-2.928-2.35zM8.8 1.6l-.006.008-.028.038c-.146.2-.282.407-.408.62a4.003 4.003 0 0 0-.282.534c-.052.12-.068.184-.074.206v.008c.023.177.085.346.182.496.15.266.356.544.616.89l.02.024c.236.316.52.694.74 1.086.224.4.44.91.44 1.49 0 .376-.13.736-.238.988a6.142 6.142 0 0 1-.404.776 10.2 10.2 0 0 1-.506.764l-.036.05-.01.016-.004.004a1.004 1.004 0 0 1-1.4.202A1 1 0 0 1 7.2 8.4l.006-.008.028-.038c.146-.2.282-.407.408-.62.107-.171.202-.349.282-.534.052-.12.068-.184.074-.206a1.199 1.199 0 0 0-.18-.504A8.024 8.024 0 0 0 7.2 5.6l-.02-.024c-.27-.345-.517-.708-.74-1.086A3.066 3.066 0 0 1 6 3c0-.376.13-.736.238-.988.118-.276.268-.548.404-.776.159-.261.328-.516.506-.764l.05-.07A1.004 1.004 0 0 1 8.598.2 1.004 1.004 0 0 1 8.8 1.6zm6 0-.006.008-.028.038c-.146.2-.282.407-.408.62a4.003 4.003 0 0 0-.282.534c-.052.12-.068.184-.074.206v.008c.023.177.085.346.182.496.15.266.356.544.616.89l.02.024c.236.316.52.694.74 1.086.224.4.44.91.44 1.49 0 .376-.13.736-.238.988a6.142 6.142 0 0 1-.404.776 10.2 10.2 0 0 1-.506.764l-.036.05-.01.016-.004.004a1.004 1.004 0 0 1-1.4.202 1 1 0 0 1-.202-1.4l.006-.008.028-.038c.146-.2.282-.407.408-.62.107-.171.202-.349.282-.534.052-.12.068-.184.074-.206a1.199 1.199 0 0 0-.18-.504 8.024 8.024 0 0 0-.618-.89l-.02-.024c-.27-.345-.517-.708-.74-1.086A3.066 3.066 0 0 1 12 3c0-.376.13-.736.238-.988.118-.276.268-.548.404-.776.159-.261.328-.516.506-.764l.05-.07a1.004 1.004 0 0 1 1.4-.202 1 1 0 0 1 .202 1.4zm6 0-.006.008-.028.038c-.145.2-.282.407-.408.62a4.003 4.003 0 0 0-.282.534c-.052.12-.068.184-.074.206v.008c.023.177.085.346.182.496.15.266.356.544.616.89l.02.024c.236.316.52.694.74 1.086.224.4.44.91.44 1.49 0 .376-.13.736-.238.988a6.142 6.142 0 0 1-.404.776 9.875 9.875 0 0 1-.504.764l-.038.05-.01.016-.004.004a1.004 1.004 0 0 1-1.4.202 1 1 0 0 1-.202-1.4l.006-.008.028-.038c.145-.2.282-.407.408-.62.107-.171.202-.349.282-.534.052-.12.068-.184.074-.206a1.199 1.199 0 0 0-.18-.504 8.024 8.024 0 0 0-.618-.89l-.02-.024c-.27-.345-.517-.708-.74-1.086A3.066 3.066 0 0 1 18 3c0-.376.13-.736.238-.988.118-.276.268-.548.404-.776.159-.261.328-.516.506-.764l.05-.07a1.004 1.004 0 0 1 1.4-.202 1 1 0 0 1 .202 1.4z"/>
    </symbol>
    <symbol id="icon-three-squares" viewBox="0 0 32 32">
      <path d="M12 2H2v28h10V2zm18 0H20v10h10V2zm0 18v10H20V20h10zM0 2a2 2 0 0 1 2-2h10a2 2 0 0 1 2 2v28a2 2 0 0 1-2 2H2a2 2 0 0 1-2-2V2zm18 0a2 2 0 0 1 2-2h10a2 2 0 0 1 2 2v10a2 2 0 0 1-2 2H20a2 2 0 0 1-2-2V2zm2 16a2 2 0 0 0-2 2v10a2 2 0 0 0 2 2h10a2 2 0 0 0 2-2V20a2 2 0 0 0-2-2H20z"/>
    </symbol>
    <symbol id="icon-water-drp" viewBox="0 0 32 32">
      <path stroke-miterlimit="10" stroke-width="2.286" d="M26.286 20.571c0 6.312-3.974 10.286-10.286 10.286S5.714 26.883 5.714 20.571c0-6.774 7.374-15.918 9.635-18.563a.85.85 0 0 1 .651-.3.85.85 0 0 1 .651.3c2.261 2.645 9.634 11.789 9.634 18.563z"/>
    </symbol>
    <symbol id="icon-wind-blow" viewBox="0 0 32 32">
      <path d="M25 4a5 5 0 0 0-5 5 .997.997 0 0 1-1 1 .997.997 0 0 1-1-1 6.994 6.994 0 0 1 4.322-6.467 6.998 6.998 0 0 1 9.544 5.102 7.006 7.006 0 0 1-2.976 7.186 6.994 6.994 0 0 1-3.889 1.18h-24a.997.997 0 0 1-1-1 .997.997 0 0 1 1-1h24a5 5 0 0 0 0-10zM11 6a2 2 0 0 0-2 2 .997.997 0 0 1-1 1 .997.997 0 0 1-1-1 4.004 4.004 0 0 1 2.469-3.695A4 4 0 1 1 11 12H1a.997.997 0 0 1-1-1 .997.997 0 0 1 1-1h10a2 2 0 0 0 0-4zM0 19a.997.997 0 0 1 1-1h20.084a5.998 5.998 0 0 1 4.242 10.243 5.996 5.996 0 0 1-6.539 1.301 5.999 5.999 0 0 1-3.704-5.543.997.997 0 0 1 1-1 .997.997 0 0 1 1 1 4.004 4.004 0 0 0 2.469 3.695 4 4 0 1 0 1.531-7.695H.999a.997.997 0 0 1-1-1z"/>
    </symbol>
    <symbol id="icon-truck" viewBox="0 0 32 32">
      <path d="M26.969 13H23.99l-.013 1.256c.598.341.992.989.992 1.744l.042 6.938H6.031V16c0-.738.404-1.376 1-1.723V13h-3a1 1 0 0 1-1-1v-1a1 1 0 0 1 1-1h1v2h2V9a2 2 0 0 1 2-2h13a2 2 0 0 1 2 2L24 12h1.969v-2h1a1 1 0 0 1 1 1v1a1 1 0 0 1-1 1zm-14.938 9h7v-1h-7v1zm0-2h7v-1h-7v1zm0-2h7v-1h-7v1zm-4 3a1 1 0 0 0 1 1h1a1 1 0 0 0 0-2h-1a1 1 0 0 0-1 1zm14-11a1 1 0 0 0-1-1h-11a1 1 0 0 0-1 1v5h13v-5zm0 10h-1a1 1 0 1 0 0 2h1a1 1 0 0 0 0-2zm1-14h-15a2 2 0 0 0-2 2V3a1 1 0 0 1 1-1h17a1 1 0 0 1 1 1v5a2 2 0 0 0-2-2zm2 18.938a1 1 0 0 1-1 1h-17a1 1 0 0 1-1-1v-1h19v1zm-14 4.062a1 1 0 0 1-1 1h-1a1 1 0 0 1-1-1v-2h3v2zm12 0a1 1 0 0 1-1 1h-1a1 1 0 0 1-1-1v-2h3v2z"/>
    </symbol>
    
<symbol id="logo" viewBox="0 0 290 32">
<path fill="#475467" style="fill: var(--color1, #475467)" d="M288.838 15.332h-7.697c-0.034-0.472-0.217-0.896-0.504-1.229l0.002 0.003c-0.302-0.347-0.683-0.617-1.116-0.783l-0.019-0.006c-0.432-0.181-0.934-0.286-1.461-0.286-0.020 0-0.039 0-0.059 0l0.003-0c-0.717 0-1.333 0.13-1.847 0.395-0.516 0.262-0.768 0.636-0.757 1.12-0.011 0.343 0.137 0.661 0.439 0.956 0.311 0.292 0.913 0.518 1.803 0.683l4.727 0.847c2.383 0.435 4.156 1.167 5.318 2.197 1.171 1.020 1.762 2.389 1.773 4.105-0.011 1.658-0.506 3.098-1.485 4.32-0.971 1.212-2.3 2.15-3.985 2.816-1.677 0.657-3.593 0.986-5.743 0.986-3.556 0-6.338-0.725-8.348-2.18-2.001-1.455-3.117-3.375-3.349-5.76h8.303c0.111 0.738 0.476 1.31 1.090 1.713 0.627 0.395 1.414 0.591 2.364 0.591 0.768 0 1.399-0.13 1.894-0.393 0.506-0.262 0.764-0.638 0.772-1.122-0.009-0.444-0.233-0.798-0.666-1.060-0.425-0.262-1.092-0.476-2.001-0.636l-4.119-0.727c-2.374-0.414-4.151-1.203-5.333-2.364-1.182-1.163-1.769-2.658-1.758-4.486-0.011-1.615 0.414-2.985 1.271-4.105 0.868-1.131 2.106-1.99 3.712-2.577 1.617-0.597 3.531-0.894 5.743-0.894 3.364 0 6.016 0.698 7.955 2.091 1.95 1.395 2.974 3.324 3.076 5.788zM248.352 25.515l0.060-9.939h1.092l5.636-7.819h9.393l-9.455 12.181h-2.364l-4.363 5.577zM240.836 31.029v-31.029h8.365v31.031h-8.365zM255.2 31.029l-5.333-9.212 5.455-5.939 9.455 15.153h-9.577zM225.321 31.454c-2.526 0-4.687-0.499-6.485-1.5-1.766-0.987-3.178-2.423-4.109-4.156l-0.027-0.055c-0.96-1.809-1.44-3.904-1.44-6.289 0-2.383 0.48-4.474 1.44-6.272 0.952-1.793 2.366-3.231 4.085-4.187l0.052-0.027c1.798-1.009 3.959-1.515 6.485-1.515 2.283 0 4.258 0.414 5.924 1.244 1.677 0.817 2.974 1.98 3.893 3.484 0.919 1.493 1.385 3.253 1.395 5.274h-7.759c-0.111-1.222-0.465-2.153-1.060-2.788-0.587-0.646-1.344-0.971-2.272-0.971-0.727 0-1.365 0.213-1.909 0.638-0.546 0.414-0.971 1.045-1.274 1.892-0.303 0.838-0.454 1.894-0.454 3.168 0 1.271 0.151 2.334 0.454 3.181 0.303 0.838 0.727 1.472 1.274 1.894 0.544 0.414 1.182 0.621 1.909 0.621 0.614 0 1.161-0.141 1.636-0.425 0.474-0.292 0.858-0.717 1.15-1.271 0.305-0.565 0.486-1.252 0.546-2.061h7.759c-0.032 2.050-0.501 3.84-1.41 5.363-0.909 1.515-2.197 2.688-3.863 3.516-1.658 0.828-3.637 1.242-5.939 1.242zM200.638 20.849v-13.092h8.363v23.275h-7.938v-4.425h-0.243c-0.482 1.458-1.413 2.659-2.628 3.469l-0.024 0.015c-1.263 0.828-2.763 1.242-4.501 1.242-1.626 0-3.051-0.373-4.271-1.12-1.212-0.756-2.177-1.804-2.813-3.048l-0.020-0.043c-0.668-1.312-1.005-2.818-1.015-4.514v-14.848h8.363v13.090c0.011 1.152 0.303 2.054 0.879 2.711 0.587 0.657 1.404 0.986 2.453 0.986 0.7 0 1.301-0.147 1.805-0.439 0.516-0.303 0.909-0.727 1.182-1.274 0.284-0.555 0.42-1.216 0.41-1.984zM166.193 31.029v-23.273h8.122v4.425h0.241c0.427-1.636 1.097-2.833 2.016-3.59 0.856-0.708 1.966-1.138 3.176-1.138 0.029 0 0.058 0 0.086 0.001l-0.004-0c0.363 0 0.723 0.030 1.075 0.092 0.363 0.051 0.713 0.128 1.045 0.226v7.14c-0.443-0.148-0.962-0.261-1.497-0.317l-0.033-0.003c-0.462-0.062-1.003-0.1-1.551-0.107l-0.008-0c-0.819 0-1.557 0.188-2.212 0.563-0.646 0.363-1.158 0.877-1.532 1.545-0.373 0.657-0.561 1.429-0.561 2.319v12.119h-8.363zM137.493 6.788v-6.788h26.972v6.788h-9.333v24.243h-8.303v-24.245h-9.335z"></path>
<path fill="#101828" style="fill: var(--color2, #101828)" d="M133.35 0v31.031h-8.363v-31.031h8.363zM109.327 31.454c-2.485 0-4.627-0.474-6.426-1.423-1.768-0.948-3.182-2.358-4.11-4.069l-0.026-0.053c-0.96-1.798-1.438-3.949-1.438-6.455 0-2.404 0.484-4.503 1.453-6.302 0.956-1.777 2.356-3.207 4.055-4.171l0.051-0.027c1.769-0.998 3.855-1.5 6.257-1.5 1.758 0 3.349 0.273 4.774 0.819 1.43 0.544 2.648 1.353 3.648 2.377l0.002 0.002c1.011 1.030 1.788 2.283 2.334 3.757s0.819 3.136 0.819 4.986v1.939h-20.789v-4.608h13.092c0-0.003 0-0.007 0-0.010 0-0.649-0.193-1.253-0.524-1.758l0.007 0.012c-0.324-0.512-0.771-0.92-1.3-1.188l-0.019-0.009c-0.52-0.277-1.138-0.44-1.794-0.44-0.024 0-0.048 0-0.072 0.001l0.004-0c-0.013-0-0.028-0-0.044-0-0.665 0-1.292 0.163-1.843 0.45l0.022-0.010c-0.559 0.277-1.019 0.678-1.358 1.17l-0.008 0.012c-0.331 0.506-0.508 1.097-0.529 1.771v4.971c0 0.747 0.158 1.414 0.469 2.001 0.314 0.585 0.764 1.045 1.35 1.378 0.585 0.335 1.293 0.501 2.121 0.501 0.576 0 1.101-0.081 1.577-0.243 0.479-0.156 0.893-0.394 1.246-0.701l-0.004 0.004c0.341-0.311 0.597-0.687 0.757-1.12h7.637c-0.249 1.619-0.912 3.052-1.877 4.226l0.012-0.015c-0.981 1.182-2.278 2.101-3.893 2.758-1.606 0.646-3.486 0.969-5.636 0.969zM95.65 7.757l-7.817 23.275h-9.698l-7.819-23.275h8.789l3.757 15.394h0.243l3.757-15.394h8.789zM53.453 31.394c-1.485 0-2.799-0.243-3.94-0.727-1.111-0.479-2.020-1.251-2.653-2.219l-0.014-0.023c-0.646-1.001-0.969-2.274-0.969-3.819 0-1.274 0.218-2.359 0.651-3.258 0.427-0.9 1.045-1.648 1.804-2.216l0.015-0.011c0.777-0.576 1.681-1.015 2.709-1.318 0.984-0.293 2.131-0.503 3.313-0.588l0.053-0.003c1.301-0.1 2.347-0.222 3.136-0.363 0.798-0.151 1.374-0.358 1.728-0.623 0.323-0.238 0.529-0.617 0.529-1.043 0-0.011-0-0.022-0-0.033l0 0.002v-0.060c0-0.606-0.233-1.071-0.698-1.395-0.465-0.322-1.060-0.484-1.788-0.484-0.798 0-1.451 0.177-1.954 0.531-0.495 0.341-0.794 0.875-0.894 1.589h-7.697c0.104-1.47 0.593-2.807 1.366-3.935l-0.018 0.027c0.809-1.201 1.984-2.161 3.531-2.88 1.545-0.725 3.475-1.088 5.788-1.088 1.666 0 3.162 0.196 4.484 0.589 1.323 0.384 2.449 0.924 3.379 1.621 0.93 0.687 1.636 1.495 2.121 2.426 0.495 0.917 0.742 1.92 0.742 2.999v15.938h-7.817v-3.273h-0.183c-0.432 0.831-1.002 1.531-1.685 2.099l-0.011 0.009c-0.657 0.533-1.408 0.924-2.257 1.165-0.799 0.231-1.717 0.363-2.666 0.363-0.038 0-0.076-0-0.113-0.001l0.006 0zM56.179 26.121c0.638 0 1.233-0.13 1.788-0.393 0.567-0.262 1.026-0.642 1.38-1.137s0.529-1.097 0.529-1.803v-1.941c-0.167 0.073-0.402 0.16-0.642 0.239l-0.069 0.019c-0.443 0.15-1.003 0.296-1.574 0.409l-0.092 0.015c-0.188 0.043-0.513 0.101-0.84 0.152l-0.116 0.015c-0.593 0.079-1.13 0.255-1.617 0.514l0.026-0.012c-0.405 0.222-0.706 0.499-0.909 0.832-0.181 0.304-0.288 0.67-0.288 1.060 0 0.011 0 0.022 0 0.033l-0-0.002c0 0.646 0.228 1.141 0.683 1.485 0.454 0.341 1.035 0.514 1.741 0.514zM28.698 31.029v-23.273h8.122v4.425h0.243c0.422-1.636 1.094-2.833 2.014-3.59 0.856-0.708 1.966-1.138 3.176-1.138 0.029 0 0.058 0 0.086 0.001l-0.004-0c0.363 0 0.723 0.030 1.077 0.092 0.363 0.051 0.71 0.128 1.045 0.226v7.14c-0.444-0.148-0.963-0.261-1.499-0.317l-0.032-0.003c-0.462-0.062-1.003-0.1-1.551-0.107l-0.008-0c-0.819 0-1.557 0.188-2.212 0.563-0.646 0.363-1.156 0.877-1.532 1.545-0.373 0.657-0.559 1.429-0.559 2.319v12.119h-8.363zM0 6.788v-6.788h26.97v6.788h-9.333v24.243h-8.303v-24.245h-9.333z"></path>
</symbol>

  </defs>
</svg>
