<svg aria-hidden="true" style="position:absolute;width:0;height:0;overflow:hidden" xmlns="http://www.w3.org/2000/svg">
  <defs>
    <symbol id="icon-comp" viewBox="0 0 32 32">
      <path d="M0 7.5s0-4 4-4h24s4 0 4 4v12s0 4-4 4h-8c0 1.333.167 2.333.5 3H22a.997.997 0 0 1 1 1 .997.997 0 0 1-1 1H10a.997.997 0 0 1-1-1 .997.997 0 0 1 1-1h1.5c.333-.667.5-1.667.5-3H4s-4 0-4-4v-12zm2.796-1.71c-.22.153-.395.361-.508.604A3.013 3.013 0 0 0 2 7.52V19.5c0 .65.156 1.004.29 1.204.14.208.341.377.604.508.338.162.703.259 1.076.286l.05.002H28c.65 0 1.004-.156 1.204-.29.22-.153.395-.361.508-.604.162-.338.259-.703.286-1.076l.002-.05V7.5c0-.65-.156-1.004-.29-1.204a1.511 1.511 0 0 0-.604-.508A3.018 3.018 0 0 0 27.98 5.5H4c-.65 0-1.004.156-1.204.29z"/>
    </symbol>
    <symbol id="icon-four-squares" viewBox="0 0 32 32">
      <path d="M0 3.429A3.428 3.428 0 0 1 3.428.001h6.857a3.428 3.428 0 0 1 3.428 3.428v6.857a3.428 3.428 0 0 1-3.428 3.428H3.428A3.428 3.428 0 0 1 0 10.286V3.429zm3.429-1.143a1.14 1.14 0 0 0-1.143 1.143v6.857a1.14 1.14 0 0 0 1.143 1.143h6.857a1.14 1.14 0 0 0 1.143-1.143V3.429a1.14 1.14 0 0 0-1.143-1.143H3.429zm14.857 1.143A3.428 3.428 0 0 1 21.714.001h6.857a3.428 3.428 0 0 1 3.428 3.428v6.857a3.428 3.428 0 0 1-3.428 3.428h-6.857a3.428 3.428 0 0 1-3.428-3.428V3.429zm3.428-1.143a1.14 1.14 0 0 0-1.143 1.143v6.857a1.14 1.14 0 0 0 1.143 1.143h6.857a1.14 1.14 0 0 0 1.143-1.143V3.429a1.14 1.14 0 0 0-1.143-1.143h-6.857zM0 21.714a3.428 3.428 0 0 1 3.428-3.428h6.857a3.428 3.428 0 0 1 3.428 3.428v6.857a3.428 3.428 0 0 1-3.428 3.428H3.428A3.428 3.428 0 0 1 0 28.571v-6.857zm3.429-1.143a1.14 1.14 0 0 0-1.143 1.143v6.857a1.14 1.14 0 0 0 1.143 1.143h6.857a1.14 1.14 0 0 0 1.143-1.143v-6.857a1.14 1.14 0 0 0-1.143-1.143H3.429zm14.857 1.143a3.428 3.428 0 0 1 3.428-3.428h6.857a3.428 3.428 0 0 1 3.428 3.428v6.857a3.428 3.428 0 0 1-3.428 3.428h-6.857a3.428 3.428 0 0 1-3.428-3.428v-6.857zm3.428-1.143a1.14 1.14 0 0 0-1.143 1.143v6.857a1.14 1.14 0 0 0 1.143 1.143h6.857a1.14 1.14 0 0 0 1.143-1.143v-6.857a1.14 1.14 0 0 0-1.143-1.143h-6.857z"/>
    </symbol>
    <symbol id="icon-frige" viewBox="0 0 32 32">
      <path d="M16.08.711h-.159c-2.614 0-4.685 0-6.305.218-1.667.225-3.017.697-4.082 1.761C4.47 3.755 3.998 5.105 3.773 6.772c-.218 1.621-.218 3.691-.218 6.305v4.426c0 2.614 0 4.685.218 6.305.225 1.667.697 3.017 1.761 4.082.654.653 1.414 1.082 2.288 1.37v.964c0 .589.478 1.067 1.067 1.067h1.422a1.066 1.066 0 0 0 1.066-1.066v-.421c1.29.065 2.795.065 4.543.065h.159c1.749 0 3.253 0 4.543-.065v.421c0 .589.478 1.067 1.067 1.067h1.422a1.066 1.066 0 0 0 1.066-1.066v-.964c.875-.287 1.636-.717 2.288-1.37 1.064-1.065 1.536-2.415 1.761-4.082.218-1.621.218-3.691.218-6.305V13.08c0-2.614 0-4.685-.218-6.305-.225-1.667-.697-3.017-1.761-4.082C25.4 1.629 24.05 1.157 22.383.932 20.762.714 18.692.714 16.078.714zM7.043 4.198c.602-.602 1.426-.963 2.857-1.155 1.462-.196 3.388-.199 6.1-.199s4.639.003 6.101.199c1.429.192 2.254.553 2.856 1.155s.963 1.426 1.155 2.857c.196 1.462.199 3.388.199 6.1v1.067H5.689v-1.067c0-2.712.003-4.638.199-6.101.192-1.429.553-2.254 1.155-2.856zM5.689 16.356h20.622v1.067c0 2.712-.003 4.639-.199 6.101-.192 1.429-.553 2.254-1.155 2.856s-1.426.963-2.857 1.155c-1.462.196-3.388.199-6.1.199s-4.638-.003-6.101-.199c-1.429-.192-2.254-.553-2.856-1.155s-.963-1.426-1.155-2.857c-.196-1.461-.199-3.388-.199-6.1v-1.067z"/>
    </symbol>
    <symbol id="icon-gas" viewBox="0 0 32 32">
      <path stroke-linejoin="round" stroke-linecap="round" stroke-width="2.56" d="M7.467 25.956h5.689m11.377.012v-.013M1.778 7.467c0-4.708.981-5.689 5.689-5.689h17.067c4.708 0 5.689.981 5.689 5.689v17.067c0 4.708-.981 5.689-5.689 5.689H7.467c-4.708 0-5.689-.981-5.689-5.689V7.467z"/>
      <path stroke-linejoin="round" stroke-linecap="round" stroke-width="2.56" d="M16 18.844a5.689 5.689 0 1 0 0-11.378 5.689 5.689 0 0 0 0 11.378zM20.978 13.156h2.133M16 18.133v2.133m-4.978-7.11H8.889M16 8.178V6.045"/>
    </symbol>
    <symbol id="icon-heart-black" viewBox="0 0 32 32">
      <path d="m16 13.139-1.788-3.578c-.444-.886-1.214-2.16-2.304-3.19C10.836 5.357 9.552 4.667 8 4.667c-3.352 0-6 2.652-6 5.84 0 2.422 1.108 4.132 3.736 6.74.674.668 1.442 1.39 2.292 2.186C10.244 21.513 13 24.101 16 27.561c3-3.46 5.756-6.048 7.972-8.128.85-.796 1.62-1.52 2.292-2.186C28.892 14.639 30 12.929 30 10.507c0-3.188-2.648-5.84-6-5.84-1.554 0-2.836.69-3.908 1.704-1.09 1.03-1.86 2.304-2.304 3.19L16 13.139zm.784 16.584a1.022 1.022 0 0 1-1.216.269 1.04 1.04 0 0 1-.352-.269c-3.202-3.804-6.1-6.524-8.486-8.762C2.6 17.083 0 14.645 0 10.507c0-4.33 3.58-7.84 8-7.84 3.2 0 5.438 2.1 6.808 4.016.52.73.916 1.432 1.192 1.984.346-.691.745-1.354 1.192-1.984C18.562 4.765 20.8 2.667 24 2.667c4.42 0 8 3.51 8 7.84 0 4.138-2.6 6.576-6.73 10.454-2.386 2.24-5.284 4.962-8.486 8.762z"/>
    </symbol>
    <symbol id="icon-heart-red" viewBox="0 0 32 32">
      <path fill="#e44848" style="fill:var(--color1, #e44848)" d="m16 13.139-1.788-3.578c-.444-.886-1.214-2.16-2.304-3.19C10.836 5.357 9.552 4.667 8 4.667c-3.352 0-6 2.652-6 5.84 0 2.422 1.108 4.132 3.736 6.74.674.668 1.442 1.39 2.292 2.186C10.244 21.513 13 24.101 16 27.561c3-3.46 5.756-6.048 7.972-8.128.85-.796 1.62-1.52 2.292-2.186C28.892 14.639 30 12.929 30 10.507c0-3.188-2.648-5.84-6-5.84-1.554 0-2.836.69-3.908 1.704-1.09 1.03-1.86 2.304-2.304 3.19L16 13.139zm.784 16.584a1.022 1.022 0 0 1-1.216.269 1.04 1.04 0 0 1-.352-.269c-3.202-3.804-6.1-6.524-8.486-8.762C2.6 17.083 0 14.645 0 10.507c0-4.33 3.58-7.84 8-7.84 3.2 0 5.438 2.1 6.808 4.016.52.73.916 1.432 1.192 1.984.346-.691.745-1.354 1.192-1.984C18.562 4.765 20.8 2.667 24 2.667c4.42 0 8 3.51 8 7.84 0 4.138-2.6 6.576-6.73 10.454-2.386 2.24-5.284 4.962-8.486 8.762z"/>
    </symbol>
    <symbol id="icon-microwave" viewBox="0 0 32 32">
      <path stroke-linejoin="round" stroke-linecap="round" stroke-width="2.133" d="M27.378 4.089H4.622a2.844 2.844 0 0 0-2.844 2.844v15.644a2.844 2.844 0 0 0 2.844 2.844h22.756a2.844 2.844 0 0 0 2.844-2.844V6.933a2.844 2.844 0 0 0-2.844-2.844z"/>
      <path stroke-linejoin="round" stroke-linecap="round" stroke-width="2.133" d="M17.422 9.778H8.889c-.785 0-1.422.637-1.422 1.422v7.111c0 .785.637 1.422 1.422 1.422h8.533c.785 0 1.422-.637 1.422-1.422V11.2c0-.785-.637-1.422-1.422-1.422zM24.533 9.778v9.956M7.467 25.422v2.844m17.066-2.844v2.844"/>
    </symbol>
    <symbol id="icon-nine-squares" viewBox="0 0 32 32">
      <path d="M6.857 2.286v4.571H2.286V2.286h4.571zm2.286 27.428v-4.571a2.287 2.287 0 0 0-2.285-2.285H2.287a2.287 2.287 0 0 0-2.285 2.285v4.571a2.287 2.287 0 0 0 2.285 2.285h4.571a2.287 2.287 0 0 0 2.285-2.285zm0-11.428v-4.571a2.287 2.287 0 0 0-2.285-2.285H2.287a2.287 2.287 0 0 0-2.285 2.285v4.571a2.287 2.287 0 0 0 2.285 2.285h4.571a2.287 2.287 0 0 0 2.285-2.285zm0-11.429V2.286A2.287 2.287 0 0 0 6.858.001H2.287A2.287 2.287 0 0 0 .002 2.286v4.571a2.287 2.287 0 0 0 2.285 2.285h4.571a2.287 2.287 0 0 0 2.285-2.285zm11.428 22.857v-4.571a2.287 2.287 0 0 0-2.285-2.285h-4.571a2.287 2.287 0 0 0-2.285 2.285v4.571a2.287 2.287 0 0 0 2.285 2.285h4.571a2.287 2.287 0 0 0 2.285-2.285zm0-11.428v-4.571a2.287 2.287 0 0 0-2.285-2.285h-4.571a2.287 2.287 0 0 0-2.285 2.285v4.571a2.287 2.287 0 0 0 2.285 2.285h4.571a2.287 2.287 0 0 0 2.285-2.285zm0-11.429V2.286A2.287 2.287 0 0 0 18.286.001h-4.571a2.287 2.287 0 0 0-2.285 2.285v4.571a2.287 2.287 0 0 0 2.285 2.285h4.571a2.287 2.287 0 0 0 2.285-2.285zm-2.285-4.571v4.571h-4.571V2.286h4.571zm11.428 0v4.571h-4.571V2.286h4.571zM6.857 13.714v4.571H2.286v-4.571h4.571zm11.429 0v4.571h-4.571v-4.571h4.571zm11.428 0h-4.571v4.571h4.571v-4.571zM6.857 25.143v4.571H2.286v-4.571h4.571zm11.429 0v4.571h-4.571v-4.571h4.571zm11.428 0v4.571h-4.571v-4.571h4.571zM25.143 0a2.287 2.287 0 0 0-2.285 2.285v4.571a2.287 2.287 0 0 0 2.285 2.285h4.571a2.287 2.287 0 0 0 2.285-2.285V2.285A2.287 2.287 0 0 0 29.714 0h-4.571zm-2.286 13.714a2.287 2.287 0 0 1 2.285-2.285h4.571a2.287 2.287 0 0 1 2.285 2.285v4.571a2.287 2.287 0 0 1-2.285 2.285h-4.571a2.287 2.287 0 0 1-2.285-2.285v-4.571zm2.286 9.143a2.287 2.287 0 0 0-2.285 2.285v4.571a2.287 2.287 0 0 0 2.285 2.285h4.571a2.287 2.287 0 0 0 2.285-2.285v-4.571a2.287 2.287 0 0 0-2.285-2.285h-4.571z"/>
    </symbol>
    <symbol id="icon-scheme" viewBox="0 0 32 32">
      <path d="M12 7a3.004 3.004 0 0 1 3-3h2a3.004 3.004 0 0 1 3 3v2a3.004 3.004 0 0 1-3 3v2h11a.997.997 0 0 1 1 1v2a.997.997 0 0 1-1 1 .997.997 0 0 1-1-1v-1H17v1a.997.997 0 0 1-1 1 .997.997 0 0 1-1-1v-1H5v1a.997.997 0 0 1-1 1 .997.997 0 0 1-1-1v-2a.997.997 0 0 1 1-1h11v-2a3.004 3.004 0 0 1-3-3V7zm5 3a.997.997 0 0 0 1-1V7a.997.997 0 0 0-1-1h-2a.997.997 0 0 0-1 1v2a.997.997 0 0 0 1 1h2zM0 23a3.004 3.004 0 0 1 3-3h2a3.004 3.004 0 0 1 3 3v2a3.004 3.004 0 0 1-3 3H3a3.004 3.004 0 0 1-3-3v-2zm3-1a.997.997 0 0 0-1 1v2a.997.997 0 0 0 1 1h2a.997.997 0 0 0 1-1v-2a.997.997 0 0 0-1-1H3zm9 1a3.004 3.004 0 0 1 3-3h2a3.004 3.004 0 0 1 3 3v2a3.004 3.004 0 0 1-3 3h-2a3.004 3.004 0 0 1-3-3v-2zm3-1a.997.997 0 0 0-1 1v2a.997.997 0 0 0 1 1h2a.997.997 0 0 0 1-1v-2a.997.997 0 0 0-1-1h-2zm9 1a3.004 3.004 0 0 1 3-3h2a3.004 3.004 0 0 1 3 3v2a3.004 3.004 0 0 1-3 3h-2a3.004 3.004 0 0 1-3-3v-2zm3-1a.997.997 0 0 0-1 1v2a.997.997 0 0 0 1 1h2a.997.997 0 0 0 1-1v-2a.997.997 0 0 0-1-1h-2z"/>
    </symbol>
    <symbol id="icon-shower" viewBox="0 0 32 32">
      <path d="M7.226 28.387a1.548 1.548 0 0 1-3.068.301 1.55 1.55 0 1 1 3.067-.303zm2.58-5.677a1.548 1.548 0 0 0-.301 3.068 1.549 1.549 0 1 0 .303-3.066zm-8.258 0a1.548 1.548 0 0 0-.301 3.068 1.549 1.549 0 1 0 .302-3.066zm4.129-4.129a1.548 1.548 0 0 0-.301 3.068 1.549 1.549 0 1 0 .302-3.066zM32 3.097a1.035 1.035 0 0 1-1.032 1.032h-3.702l-3.593 3.595-2.795 16.36a2.07 2.07 0 0 1-2.523 1.663 2.062 2.062 0 0 1-.973-.546L4.737 12.556A2.062 2.062 0 0 1 5.858 9.06l16.354-2.796 3.897-3.897a1.037 1.037 0 0 1 .73-.302h4.129A1.029 1.029 0 0 1 32 3.097zM21.447 8.489 6.194 11.097l12.645 12.645 2.608-15.253z"/>
    </symbol>
    <symbol id="icon-star" viewBox="0 0 32 32">
      <path fill="#f2f4f7" style="fill:var(--color2, #f2f4f7)" d="M15.116 2.676a1 1 0 0 1 1.769 0l3.777 7.158c.145.274.408.466.714.519l7.975 1.38a1 1 0 0 1 .547 1.682l-5.641 5.804a1 1 0 0 0-.273.839l1.152 8.01a1 1 0 0 1-1.431 1.04l-7.263-3.571a.998.998 0 0 0-.882 0l-7.262 3.571a1 1 0 0 1-1.431-1.04l1.152-8.01a1 1 0 0 0-.273-.839l-5.64-5.804a1 1 0 0 1 .547-1.682l7.974-1.38a.998.998 0 0 0 .714-.519l3.776-7.158z"/>
    </symbol>
    <symbol id="icon-star-gold" viewBox="0 0 32 32">
      <path fill="#ffc531" style="fill:var(--color3, #ffc531)" d="M15.116 1.676a1 1 0 0 1 1.769 0l3.777 7.158c.145.274.408.466.714.519l7.975 1.38a1 1 0 0 1 .547 1.682l-5.641 5.804a1 1 0 0 0-.273.839l1.152 8.01a1 1 0 0 1-1.431 1.04l-7.263-3.571a.998.998 0 0 0-.882 0l-7.262 3.571a1 1 0 0 1-1.431-1.04l1.152-8.01a1 1 0 0 0-.273-.839l-5.64-5.804a1 1 0 0 1 .547-1.682l7.974-1.38a.998.998 0 0 0 .714-.519l3.776-7.158z"/>
    </symbol>
    <symbol id="icon-tea" viewBox="0 0 32 32">
      <path d="M1 12a1.007 1.007 0 0 0-.779.374.997.997 0 0 0-.197.842l3.304 14.868A4.998 4.998 0 0 0 8.208 32h11.584a4.996 4.996 0 0 0 4.88-3.916l.262-1.18a6 6 0 0 0 2.601-11.708l.442-1.98A1.003 1.003 0 0 0 27.001 12h-26zm25 13a4.05 4.05 0 0 1-.632-.05l1.734-7.796A4.002 4.002 0 0 1 26 25zM5.28 27.65 2.246 14h23.508L22.72 27.65A2.995 2.995 0 0 1 19.792 30H8.208a2.998 2.998 0 0 1-2.928-2.35zM8.8 1.6l-.006.008-.028.038c-.146.2-.282.407-.408.62a4.003 4.003 0 0 0-.282.534c-.052.12-.068.184-.074.206v.008c.023.177.085.346.182.496.15.266.356.544.616.89l.02.024c.236.316.52.694.74 1.086.224.4.44.91.44 1.49 0 .376-.13.736-.238.988a6.142 6.142 0 0 1-.404.776 10.2 10.2 0 0 1-.506.764l-.036.05-.01.016-.004.004a1.004 1.004 0 0 1-1.4.202A1 1 0 0 1 7.2 8.4l.006-.008.028-.038c.146-.2.282-.407.408-.62.107-.171.202-.349.282-.534.052-.12.068-.184.074-.206a1.199 1.199 0 0 0-.18-.504A8.024 8.024 0 0 0 7.2 5.6l-.02-.024c-.27-.345-.517-.708-.74-1.086A3.066 3.066 0 0 1 6 3c0-.376.13-.736.238-.988.118-.276.268-.548.404-.776.159-.261.328-.516.506-.764l.05-.07A1.004 1.004 0 0 1 8.598.2 1.004 1.004 0 0 1 8.8 1.6zm6 0-.006.008-.028.038c-.146.2-.282.407-.408.62a4.003 4.003 0 0 0-.282.534c-.052.12-.068.184-.074.206v.008c.023.177.085.346.182.496.15.266.356.544.616.89l.02.024c.236.316.52.694.74 1.086.224.4.44.91.44 1.49 0 .376-.13.736-.238.988a6.142 6.142 0 0 1-.404.776 10.2 10.2 0 0 1-.506.764l-.036.05-.01.016-.004.004a1.004 1.004 0 0 1-1.4.202 1 1 0 0 1-.202-1.4l.006-.008.028-.038c.146-.2.282-.407.408-.62.107-.171.202-.349.282-.534.052-.12.068-.184.074-.206a1.199 1.199 0 0 0-.18-.504 8.024 8.024 0 0 0-.618-.89l-.02-.024c-.27-.345-.517-.708-.74-1.086A3.066 3.066 0 0 1 12 3c0-.376.13-.736.238-.988.118-.276.268-.548.404-.776.159-.261.328-.516.506-.764l.05-.07a1.004 1.004 0 0 1 1.4-.202 1 1 0 0 1 .202 1.4zm6 0-.006.008-.028.038c-.145.2-.282.407-.408.62a4.003 4.003 0 0 0-.282.534c-.052.12-.068.184-.074.206v.008c.023.177.085.346.182.496.15.266.356.544.616.89l.02.024c.236.316.52.694.74 1.086.224.4.44.91.44 1.49 0 .376-.13.736-.238.988a6.142 6.142 0 0 1-.404.776 9.875 9.875 0 0 1-.504.764l-.038.05-.01.016-.004.004a1.004 1.004 0 0 1-1.4.202 1 1 0 0 1-.202-1.4l.006-.008.028-.038c.145-.2.282-.407.408-.62.107-.171.202-.349.282-.534.052-.12.068-.184.074-.206a1.199 1.199 0 0 0-.18-.504 8.024 8.024 0 0 0-.618-.89l-.02-.024c-.27-.345-.517-.708-.74-1.086A3.066 3.066 0 0 1 18 3c0-.376.13-.736.238-.988.118-.276.268-.548.404-.776.159-.261.328-.516.506-.764l.05-.07a1.004 1.004 0 0 1 1.4-.202 1 1 0 0 1 .202 1.4z"/>
    </symbol>
    <symbol id="icon-three-squares" viewBox="0 0 32 32">
      <path d="M12 2H2v28h10V2zm18 0H20v10h10V2zm0 18v10H20V20h10zM0 2a2 2 0 0 1 2-2h10a2 2 0 0 1 2 2v28a2 2 0 0 1-2 2H2a2 2 0 0 1-2-2V2zm18 0a2 2 0 0 1 2-2h10a2 2 0 0 1 2 2v10a2 2 0 0 1-2 2H20a2 2 0 0 1-2-2V2zm2 16a2 2 0 0 0-2 2v10a2 2 0 0 0 2 2h10a2 2 0 0 0 2-2V20a2 2 0 0 0-2-2H20z"/>
    </symbol>
    <symbol id="icon-water-drp" viewBox="0 0 32 32">
      <path stroke-miterlimit="10" stroke-width="2.286" d="M26.286 20.571c0 6.312-3.974 10.286-10.286 10.286S5.714 26.883 5.714 20.571c0-6.774 7.374-15.918 9.635-18.563a.85.85 0 0 1 .651-.3.85.85 0 0 1 .651.3c2.261 2.645 9.634 11.789 9.634 18.563z"/>
    </symbol>
    <symbol id="icon-wind-blow" viewBox="0 0 32 32">
      <path d="M25 4a5 5 0 0 0-5 5 .997.997 0 0 1-1 1 .997.997 0 0 1-1-1 6.994 6.994 0 0 1 4.322-6.467 6.998 6.998 0 0 1 9.544 5.102 7.006 7.006 0 0 1-2.976 7.186 6.994 6.994 0 0 1-3.889 1.18h-24a.997.997 0 0 1-1-1 .997.997 0 0 1 1-1h24a5 5 0 0 0 0-10zM11 6a2 2 0 0 0-2 2 .997.997 0 0 1-1 1 .997.997 0 0 1-1-1 4.004 4.004 0 0 1 2.469-3.695A4 4 0 1 1 11 12H1a.997.997 0 0 1-1-1 .997.997 0 0 1 1-1h10a2 2 0 0 0 0-4zM0 19a.997.997 0 0 1 1-1h20.084a5.998 5.998 0 0 1 4.242 10.243 5.996 5.996 0 0 1-6.539 1.301 5.999 5.999 0 0 1-3.704-5.543.997.997 0 0 1 1-1 .997.997 0 0 1 1 1 4.004 4.004 0 0 0 2.469 3.695 4 4 0 1 0 1.531-7.695H.999a.997.997 0 0 1-1-1z"/>
    </symbol>
    <symbol id="icon-truck" viewBox="0 0 32 32">
      <path d="M26.969 13H23.99l-.013 1.256c.598.341.992.989.992 1.744l.042 6.938H6.031V16c0-.738.404-1.376 1-1.723V13h-3a1 1 0 0 1-1-1v-1a1 1 0 0 1 1-1h1v2h2V9a2 2 0 0 1 2-2h13a2 2 0 0 1 2 2L24 12h1.969v-2h1a1 1 0 0 1 1 1v1a1 1 0 0 1-1 1zm-14.938 9h7v-1h-7v1zm0-2h7v-1h-7v1zm0-2h7v-1h-7v1zm-4 3a1 1 0 0 0 1 1h1a1 1 0 0 0 0-2h-1a1 1 0 0 0-1 1zm14-11a1 1 0 0 0-1-1h-11a1 1 0 0 0-1 1v5h13v-5zm0 10h-1a1 1 0 1 0 0 2h1a1 1 0 0 0 0-2zm1-14h-15a2 2 0 0 0-2 2V3a1 1 0 0 1 1-1h17a1 1 0 0 1 1 1v5a2 2 0 0 0-2-2zm2 18.938a1 1 0 0 1-1 1h-17a1 1 0 0 1-1-1v-1h19v1zm-14 4.062a1 1 0 0 1-1 1h-1a1 1 0 0 1-1-1v-2h3v2zm12 0a1 1 0 0 1-1 1h-1a1 1 0 0 1-1-1v-2h3v2z"/>
    </symbol>
    <symbol id="logo" viewBox="0 0 272 32">
<path fill="#475467" style="fill: var(--color1, #475467)" d="M270.786 14.375h-7.216c-0.038-0.445-0.194-0.829-0.47-1.151-0.274-0.322-0.63-0.568-1.064-0.739-0.428-0.18-0.9-0.27-1.422-0.27-0.672 0-1.25 0.123-1.732 0.369-0.484 0.246-0.72 0.597-0.71 1.051-0.010 0.322 0.128 0.62 0.412 0.895 0.292 0.275 0.856 0.488 1.69 0.639l4.432 0.795c2.234 0.407 3.896 1.094 4.986 2.060 1.098 0.956 1.652 2.24 1.662 3.849-0.010 1.553-0.474 2.902-1.392 4.048-0.91 1.136-2.156 2.017-3.736 2.642-1.572 0.615-3.368 0.923-5.384 0.923-3.334 0-5.942-0.682-7.826-2.045-1.876-1.364-2.922-3.163-3.14-5.398h7.784c0.104 0.691 0.446 1.226 1.022 1.605 0.588 0.369 1.326 0.554 2.216 0.554 0.72 0 1.312-0.123 1.776-0.369 0.474-0.246 0.716-0.597 0.724-1.051-0.008-0.417-0.218-0.748-0.624-0.994-0.398-0.246-1.024-0.445-1.876-0.597l-3.862-0.682c-2.226-0.388-3.892-1.127-5-2.216s-1.658-2.491-1.648-4.205c-0.010-1.515 0.388-2.798 1.192-3.849 0.814-1.061 1.974-1.866 3.48-2.415 1.516-0.559 3.31-0.838 5.384-0.838 3.154 0 5.64 0.653 7.458 1.96 1.828 1.307 2.788 3.116 2.884 5.426z"></path>
<path fill="#475467" style="fill: var(--color1, #475467)" d="M232.83 23.92l0.056-9.318h1.024l5.284-7.33h8.806l-8.864 11.42h-2.216l-4.090 5.227zM225.784 29.091v-29.091h7.842v29.091h-7.842zM239.25 29.091l-5-8.636 5.114-5.568 8.864 14.205h-8.978z"></path>
<path fill="#475467" style="fill: var(--color1, #475467)" d="M211.238 29.489c-2.368 0-4.394-0.469-6.080-1.406-1.686-0.947-2.978-2.263-3.878-3.949-0.9-1.695-1.349-3.66-1.349-5.895s0.449-4.195 1.349-5.881c0.9-1.695 2.192-3.011 3.878-3.949 1.686-0.947 3.712-1.42 6.080-1.42 2.14 0 3.992 0.388 5.554 1.165 1.572 0.767 2.788 1.856 3.65 3.267 0.862 1.402 1.298 3.049 1.308 4.943h-7.274c-0.104-1.146-0.436-2.017-0.994-2.614-0.55-0.606-1.26-0.909-2.13-0.909-0.682 0-1.28 0.199-1.79 0.597-0.512 0.388-0.91 0.98-1.194 1.776-0.284 0.786-0.426 1.776-0.426 2.969s0.142 2.188 0.426 2.983c0.284 0.786 0.682 1.378 1.194 1.776 0.51 0.388 1.108 0.582 1.79 0.582 0.578 0 1.088-0.133 1.534-0.398 0.444-0.275 0.804-0.672 1.080-1.193 0.284-0.53 0.454-1.174 0.51-1.932h7.274c-0.030 1.922-0.47 3.598-1.322 5.028-0.852 1.42-2.060 2.519-3.622 3.295-1.554 0.777-3.41 1.165-5.568 1.165z"></path>
<path fill="#475467" style="fill: var(--color1, #475467)" d="M188.097 19.545v-12.273h7.841v21.818h-7.443v-4.148h-0.227c-0.473 1.392-1.302 2.481-2.486 3.267-1.184 0.777-2.59 1.165-4.219 1.165-1.525 0-2.86-0.35-4.006-1.051-1.136-0.701-2.022-1.667-2.656-2.898-0.625-1.231-0.942-2.642-0.952-4.233v-13.921h7.841v12.273c0.009 1.080 0.284 1.927 0.824 2.543 0.549 0.616 1.316 0.923 2.301 0.923 0.653 0 1.217-0.137 1.69-0.412 0.483-0.284 0.852-0.682 1.108-1.193 0.265-0.521 0.393-1.141 0.383-1.861z"></path>
<path fill="#475467" style="fill: var(--color1, #475467)" d="M155.806 29.091v-21.818h7.614v4.148h0.227c0.398-1.534 1.027-2.656 1.889-3.366 0.871-0.71 1.889-1.065 3.054-1.065 0.341 0 0.677 0.028 1.009 0.085 0.341 0.047 0.668 0.118 0.98 0.213v6.69c-0.388-0.133-0.866-0.232-1.435-0.298s-1.056-0.099-1.463-0.099c-0.767 0-1.458 0.175-2.074 0.526-0.606 0.341-1.084 0.824-1.435 1.449-0.35 0.616-0.526 1.34-0.526 2.173v11.364h-7.841z"></path>
<path fill="#475467" style="fill: var(--color1, #475467)" d="M128.902 6.364v-6.364h25.284v6.364h-8.75v22.727h-7.784v-22.727h-8.75z"></path>
<path fill="#101828" style="fill: var(--color2, #101828)" d="M125.016 0v29.091h-7.841v-29.091h7.841z"></path>
<path fill="#101828" style="fill: var(--color2, #101828)" d="M102.493 29.489c-2.33 0-4.337-0.445-6.023-1.335-1.676-0.9-2.969-2.187-3.878-3.864-0.9-1.686-1.349-3.703-1.349-6.051 0-2.254 0.455-4.223 1.364-5.909s2.192-2.997 3.849-3.935 3.613-1.406 5.867-1.406c1.648 0 3.139 0.256 4.474 0.767s2.476 1.255 3.423 2.23c0.947 0.966 1.676 2.14 2.188 3.523s0.767 2.94 0.767 4.673v1.818h-19.489v-4.318h12.273c-0.010-0.625-0.171-1.174-0.483-1.648-0.303-0.483-0.715-0.857-1.236-1.122-0.511-0.275-1.094-0.412-1.747-0.412-0.634 0-1.217 0.137-1.747 0.412-0.53 0.265-0.956 0.634-1.278 1.108-0.312 0.473-0.478 1.027-0.497 1.662v4.659c0 0.701 0.147 1.326 0.44 1.875s0.715 0.98 1.264 1.293c0.549 0.312 1.212 0.469 1.989 0.469 0.54 0 1.032-0.076 1.477-0.227 0.454-0.152 0.843-0.369 1.165-0.653 0.322-0.294 0.559-0.644 0.71-1.051h7.159c-0.246 1.515-0.829 2.832-1.747 3.949-0.918 1.108-2.135 1.97-3.651 2.585-1.506 0.606-3.267 0.909-5.284 0.909z"></path>
<path fill="#101828" style="fill: var(--color2, #101828)" d="M89.673 7.273l-7.329 21.818h-9.091l-7.33-21.818h8.239l3.523 14.432h0.227l3.523-14.432h8.239z"></path>
<path fill="#101828" style="fill: var(--color2, #101828)" d="M50.112 29.432c-1.392 0-2.623-0.227-3.693-0.682-1.061-0.464-1.894-1.165-2.5-2.102s-0.909-2.131-0.909-3.58c0-1.193 0.204-2.211 0.611-3.054 0.407-0.852 0.975-1.548 1.705-2.088s1.577-0.952 2.543-1.236c0.975-0.284 2.026-0.469 3.153-0.554 1.222-0.095 2.202-0.208 2.94-0.341 0.748-0.142 1.288-0.336 1.619-0.582 0.331-0.256 0.497-0.592 0.497-1.009v-0.057c0-0.568-0.218-1.004-0.653-1.307s-0.994-0.455-1.676-0.455c-0.748 0-1.359 0.166-1.832 0.497-0.464 0.322-0.743 0.819-0.838 1.491h-7.216c0.095-1.326 0.516-2.547 1.264-3.665 0.758-1.127 1.861-2.027 3.31-2.699 1.449-0.682 3.257-1.023 5.426-1.023 1.563 0 2.964 0.185 4.205 0.554 1.241 0.36 2.296 0.866 3.168 1.52 0.871 0.644 1.534 1.402 1.989 2.273 0.464 0.862 0.696 1.799 0.696 2.813v14.943h-7.329v-3.068h-0.171c-0.436 0.814-0.966 1.472-1.591 1.974-0.616 0.502-1.321 0.866-2.117 1.094-0.786 0.227-1.652 0.341-2.599 0.341zM52.669 24.489c0.597 0 1.155-0.123 1.676-0.369 0.53-0.246 0.961-0.601 1.293-1.065s0.497-1.027 0.497-1.69v-1.818c-0.208 0.085-0.431 0.166-0.668 0.241-0.227 0.076-0.474 0.147-0.739 0.213-0.256 0.066-0.53 0.128-0.824 0.185-0.284 0.057-0.582 0.109-0.895 0.156-0.606 0.095-1.103 0.251-1.492 0.469-0.379 0.208-0.663 0.469-0.852 0.781-0.18 0.303-0.27 0.644-0.27 1.023 0 0.606 0.213 1.070 0.639 1.392s0.971 0.483 1.633 0.483z"></path>
<path fill="#101828" style="fill: var(--color2, #101828)" d="M26.904 29.091v-21.818h7.614v4.148h0.227c0.398-1.534 1.027-2.656 1.889-3.366 0.871-0.71 1.889-1.065 3.054-1.065 0.341 0 0.677 0.028 1.009 0.085 0.341 0.047 0.668 0.118 0.98 0.213v6.69c-0.388-0.133-0.866-0.232-1.435-0.298s-1.056-0.099-1.463-0.099c-0.767 0-1.458 0.175-2.074 0.526-0.606 0.341-1.084 0.824-1.435 1.449-0.35 0.616-0.526 1.34-0.526 2.173v11.364h-7.841z"></path>
<path fill="#101828" style="fill: var(--color2, #101828)" d="M0 6.364v-6.364h25.284v6.364h-8.75v22.727h-7.784v-22.727h-8.75z"></path>
</symbol>
  </defs>
</svg>
