<svg aria-hidden="true" style="position:absolute;width:0;height:0;overflow:hidden" xmlns="http://www.w3.org/2000/svg">
  <defs>
    <symbol id="icon-map" viewBox="0 0 32 32">
  <path d="M31.634.226A.999.999 0 0 1 32 .999v28.002a1 1 0 0 1-.798.978l-.006.001-10 2a1.003 1.003 0 0 1-.398-.001l.006.001-9.803-1.96-9.803 1.96a1 1 0 0 1-1.197-.979v-28a1 1 0 0 1 .797-.979l.006-.001 10-2a1.003 1.003 0 0 1 .398.002l-.006-.001 9.805 1.96 9.805-1.96a1.003 1.003 0 0 1 .831.208l-.002-.001zM20 3.819l-8-1.6v25.96l8 1.6V3.819zm2 25.96 8-1.6V2.219l-8 1.6v25.96zm-12-1.6V2.219l-8 1.6v25.96l8-1.6z"/>
</symbol>

    <symbol id="logo" viewBox="0 0 290 32">
      <path fill="#475467" style="fill:var(--color1, #475467)" d="M288.838 15.332h-7.697a2.104 2.104 0 0 0-.504-1.229l.002.003a2.815 2.815 0 0 0-1.116-.783l-.019-.006a3.805 3.805 0 0 0-1.461-.286h-.059.003c-.717 0-1.333.13-1.847.395-.516.262-.768.636-.757 1.12-.011.343.137.661.439.956.311.292.913.518 1.803.683l4.727.847c2.383.435 4.156 1.167 5.318 2.197 1.171 1.02 1.762 2.389 1.773 4.105-.011 1.658-.506 3.098-1.485 4.32-.971 1.212-2.3 2.15-3.985 2.816-1.677.657-3.593.986-5.743.986-3.556 0-6.338-.725-8.348-2.18-2.001-1.455-3.117-3.375-3.349-5.76h8.303c.111.738.476 1.31 1.09 1.713.627.395 1.414.591 2.364.591.768 0 1.399-.13 1.894-.393.506-.262.764-.638.772-1.122-.009-.444-.233-.798-.666-1.06-.425-.262-1.092-.476-2.001-.636l-4.119-.727c-2.374-.414-4.151-1.203-5.333-2.364-1.182-1.163-1.769-2.658-1.758-4.486-.011-1.615.414-2.985 1.271-4.105.868-1.131 2.106-1.99 3.712-2.577 1.617-.597 3.531-.894 5.743-.894 3.364 0 6.016.698 7.955 2.091 1.95 1.395 2.974 3.324 3.076 5.788zm-40.486 10.183.06-9.939h1.092l5.636-7.819h9.393l-9.455 12.181h-2.364l-4.363 5.577zm-7.516 5.514V0h8.365v31.031h-8.365zm14.364 0-5.333-9.212 5.455-5.939 9.455 15.153H255.2zm-29.879.425c-2.526 0-4.687-.499-6.485-1.5a10.39 10.39 0 0 1-4.109-4.156l-.027-.055c-.96-1.809-1.44-3.904-1.44-6.289 0-2.383.48-4.474 1.44-6.272a10.275 10.275 0 0 1 4.085-4.187l.052-.027c1.798-1.009 3.959-1.515 6.485-1.515 2.283 0 4.258.414 5.924 1.244 1.677.817 2.974 1.98 3.893 3.484.919 1.493 1.385 3.253 1.395 5.274h-7.759c-.111-1.222-.465-2.153-1.06-2.788-.587-.646-1.344-.971-2.272-.971-.727 0-1.365.213-1.909.638-.546.414-.971 1.045-1.274 1.892-.303.838-.454 1.894-.454 3.168 0 1.271.151 2.334.454 3.181.303.838.727 1.472 1.274 1.894.544.414 1.182.621 1.909.621.614 0 1.161-.141 1.636-.425.474-.292.858-.717 1.15-1.271.305-.565.486-1.252.546-2.061h7.759c-.032 2.05-.501 3.84-1.41 5.363-.909 1.515-2.197 2.688-3.863 3.516-1.658.828-3.637 1.242-5.939 1.242zm-24.683-10.605V7.757h8.363v23.275h-7.938v-4.425h-.243a6.653 6.653 0 0 1-2.628 3.469l-.024.015c-1.263.828-2.763 1.242-4.501 1.242-1.626 0-3.051-.373-4.271-1.12a7.744 7.744 0 0 1-2.813-3.048l-.02-.043c-.668-1.312-1.005-2.818-1.015-4.514V7.76h8.363v13.09c.011 1.152.303 2.054.879 2.711.587.657 1.404.986 2.453.986.7 0 1.301-.147 1.805-.439a2.99 2.99 0 0 0 1.182-1.274c.284-.555.42-1.216.41-1.984zm-34.445 10.18V7.756h8.122v4.425h.241c.427-1.636 1.097-2.833 2.016-3.59a4.973 4.973 0 0 1 3.262-1.137h-.004a6.2 6.2 0 0 1 1.075.092c.363.051.713.128 1.045.226v7.14a7.168 7.168 0 0 0-1.497-.317l-.033-.003c-.462-.062-1.003-.1-1.551-.107h-.008c-.819 0-1.557.188-2.212.563a3.945 3.945 0 0 0-1.532 1.545c-.373.657-.561 1.429-.561 2.319v12.119h-8.363zm-28.7-24.241V0h26.972v6.788h-9.333v24.243h-8.303V6.786h-9.335z"/>
      <path fill="#101828" style="fill:var(--color2, #101828)" d="M133.35 0v31.031h-8.363V0h8.363zm-24.023 31.454c-2.485 0-4.627-.474-6.426-1.423a10.05 10.05 0 0 1-4.11-4.069l-.026-.053c-.96-1.798-1.438-3.949-1.438-6.455 0-2.404.484-4.503 1.453-6.302a10.465 10.465 0 0 1 4.055-4.171l.051-.027c1.769-.998 3.855-1.5 6.257-1.5 1.758 0 3.349.273 4.774.819a10.039 10.039 0 0 1 3.648 2.377l.002.002c1.011 1.03 1.788 2.283 2.334 3.757s.819 3.136.819 4.986v1.939H99.931v-4.608h13.092v-.01c0-.649-.193-1.253-.524-1.758l.007.012a3.306 3.306 0 0 0-1.3-1.188l-.019-.009a3.827 3.827 0 0 0-1.866-.439h.004-.044c-.665 0-1.292.163-1.843.45l.022-.01a3.552 3.552 0 0 0-1.358 1.17l-.008.012c-.331.506-.508 1.097-.529 1.771v4.971c0 .747.158 1.414.469 2.001a3.416 3.416 0 0 0 1.35 1.378c.585.335 1.293.501 2.121.501.576 0 1.101-.081 1.577-.243a3.558 3.558 0 0 0 1.246-.701l-.004.004c.341-.311.597-.687.757-1.12h7.637a8.69 8.69 0 0 1-1.877 4.226l.012-.015c-.981 1.182-2.278 2.101-3.893 2.758-1.606.646-3.486.969-5.636.969zM95.65 7.757l-7.817 23.275h-9.698L70.316 7.757h8.789l3.757 15.394h.243l3.757-15.394h8.789zM53.453 31.394c-1.485 0-2.799-.243-3.94-.727a5.976 5.976 0 0 1-2.653-2.219l-.014-.023c-.646-1.001-.969-2.274-.969-3.819 0-1.274.218-2.359.651-3.258a5.914 5.914 0 0 1 1.804-2.216l.015-.011c.777-.576 1.681-1.015 2.709-1.318a15.79 15.79 0 0 1 3.313-.588l.053-.003c1.301-.1 2.347-.222 3.136-.363.798-.151 1.374-.358 1.728-.623.323-.238.529-.617.529-1.043v-.033.002-.06c0-.606-.233-1.071-.698-1.395-.465-.322-1.06-.484-1.788-.484-.798 0-1.451.177-1.954.531-.495.341-.794.875-.894 1.589h-7.697a7.909 7.909 0 0 1 1.366-3.935l-.018.027c.809-1.201 1.984-2.161 3.531-2.88 1.545-.725 3.475-1.088 5.788-1.088 1.666 0 3.162.196 4.484.589 1.323.384 2.449.924 3.379 1.621.93.687 1.636 1.495 2.121 2.426.495.917.742 1.92.742 2.999V31.03H60.36v-3.273h-.183a6.768 6.768 0 0 1-1.685 2.099l-.011.009a6.252 6.252 0 0 1-2.257 1.165 9.723 9.723 0 0 1-2.666.363l-.113-.001h.006zm2.726-5.273c.638 0 1.233-.13 1.788-.393.567-.262 1.026-.642 1.38-1.137s.529-1.097.529-1.803v-1.941a7.84 7.84 0 0 1-.642.239l-.069.019a12.94 12.94 0 0 1-1.574.409l-.092.015c-.188.043-.513.101-.84.152l-.116.015a4.748 4.748 0 0 0-1.617.514l.026-.012c-.405.222-.706.499-.909.832-.181.304-.288.67-.288 1.06v.033-.002c0 .646.228 1.141.683 1.485.454.341 1.035.514 1.741.514zm-27.481 4.908V7.756h8.122v4.425h.243c.422-1.636 1.094-2.833 2.014-3.59a4.973 4.973 0 0 1 3.262-1.137h-.004c.363 0 .723.03 1.077.092.363.051.71.128 1.045.226v7.14a7.188 7.188 0 0 0-1.499-.317l-.032-.003c-.462-.062-1.003-.1-1.551-.107h-.008c-.819 0-1.557.188-2.212.563a3.958 3.958 0 0 0-1.532 1.545c-.373.657-.559 1.429-.559 2.319v12.119h-8.363zM0 6.788V0h26.97v6.788h-9.333v24.243H9.334V6.786H.001z"/>
    </symbol>
    <symbol id="icon-comp" viewBox="0 0 32 32">
      <path d="M0 7.5s0-4 4-4h24s4 0 4 4v12s0 4-4 4h-8c0 1.333.167 2.333.5 3H22a.997.997 0 0 1 1 1 .997.997 0 0 1-1 1H10a.997.997 0 0 1-1-1 .997.997 0 0 1 1-1h1.5c.333-.667.5-1.667.5-3H4s-4 0-4-4v-12zm2.796-1.71c-.22.153-.395.361-.508.604A3.013 3.013 0 0 0 2 7.52V19.5c0 .65.156 1.004.29 1.204.14.208.341.377.604.508.338.162.703.259 1.076.286l.05.002H28c.65 0 1.004-.156 1.204-.29.22-.153.395-.361.508-.604.162-.338.259-.703.286-1.076l.002-.05V7.5c0-.65-.156-1.004-.29-1.204a1.511 1.511 0 0 0-.604-.508A3.018 3.018 0 0 0 27.98 5.5H4c-.65 0-1.004.156-1.204.29z"/>
    </symbol>
    <symbol id="icon-four-squares" viewBox="0 0 32 32">
      <path d="M0 3.429A3.428 3.428 0 0 1 3.428.001h6.857a3.428 3.428 0 0 1 3.428 3.428v6.857a3.428 3.428 0 0 1-3.428 3.428H3.428A3.428 3.428 0 0 1 0 10.286V3.429zm3.429-1.143a1.14 1.14 0 0 0-1.143 1.143v6.857a1.14 1.14 0 0 0 1.143 1.143h6.857a1.14 1.14 0 0 0 1.143-1.143V3.429a1.14 1.14 0 0 0-1.143-1.143H3.429zm14.857 1.143A3.428 3.428 0 0 1 21.714.001h6.857a3.428 3.428 0 0 1 3.428 3.428v6.857a3.428 3.428 0 0 1-3.428 3.428h-6.857a3.428 3.428 0 0 1-3.428-3.428V3.429zm3.428-1.143a1.14 1.14 0 0 0-1.143 1.143v6.857a1.14 1.14 0 0 0 1.143 1.143h6.857a1.14 1.14 0 0 0 1.143-1.143V3.429a1.14 1.14 0 0 0-1.143-1.143h-6.857zM0 21.714a3.428 3.428 0 0 1 3.428-3.428h6.857a3.428 3.428 0 0 1 3.428 3.428v6.857a3.428 3.428 0 0 1-3.428 3.428H3.428A3.428 3.428 0 0 1 0 28.571v-6.857zm3.429-1.143a1.14 1.14 0 0 0-1.143 1.143v6.857a1.14 1.14 0 0 0 1.143 1.143h6.857a1.14 1.14 0 0 0 1.143-1.143v-6.857a1.14 1.14 0 0 0-1.143-1.143H3.429zm14.857 1.143a3.428 3.428 0 0 1 3.428-3.428h6.857a3.428 3.428 0 0 1 3.428 3.428v6.857a3.428 3.428 0 0 1-3.428 3.428h-6.857a3.428 3.428 0 0 1-3.428-3.428v-6.857zm3.428-1.143a1.14 1.14 0 0 0-1.143 1.143v6.857a1.14 1.14 0 0 0 1.143 1.143h6.857a1.14 1.14 0 0 0 1.143-1.143v-6.857a1.14 1.14 0 0 0-1.143-1.143h-6.857z"/>
    </symbol>
    <symbol id="icon-frige" viewBox="0 0 32 32">
      <path d="M16.08.711h-.159c-2.614 0-4.685 0-6.305.218-1.667.225-3.017.697-4.082 1.761C4.47 3.755 3.998 5.105 3.773 6.772c-.218 1.621-.218 3.691-.218 6.305v4.426c0 2.614 0 4.685.218 6.305.225 1.667.697 3.017 1.761 4.082.654.653 1.414 1.082 2.288 1.37v.964c0 .589.478 1.067 1.067 1.067h1.422a1.066 1.066 0 0 0 1.066-1.066v-.421c1.29.065 2.795.065 4.543.065h.159c1.749 0 3.253 0 4.543-.065v.421c0 .589.478 1.067 1.067 1.067h1.422a1.066 1.066 0 0 0 1.066-1.066v-.964c.875-.287 1.636-.717 2.288-1.37 1.064-1.065 1.536-2.415 1.761-4.082.218-1.621.218-3.691.218-6.305V13.08c0-2.614 0-4.685-.218-6.305-.225-1.667-.697-3.017-1.761-4.082C25.4 1.629 24.05 1.157 22.383.932 20.762.714 18.692.714 16.078.714zM7.043 4.198c.602-.602 1.426-.963 2.857-1.155 1.462-.196 3.388-.199 6.1-.199s4.639.003 6.101.199c1.429.192 2.254.553 2.856 1.155s.963 1.426 1.155 2.857c.196 1.462.199 3.388.199 6.1v1.067H5.689v-1.067c0-2.712.003-4.638.199-6.101.192-1.429.553-2.254 1.155-2.856zM5.689 16.356h20.622v1.067c0 2.712-.003 4.639-.199 6.101-.192 1.429-.553 2.254-1.155 2.856s-1.426.963-2.857 1.155c-1.462.196-3.388.199-6.1.199s-4.638-.003-6.101-.199c-1.429-.192-2.254-.553-2.856-1.155s-.963-1.426-1.155-2.857c-.196-1.461-.199-3.388-.199-6.1v-1.067z"/>
    </symbol>
    
    <symbol id="icon-heart-black" viewBox="0 0 32 32">
      <path d="m16 13.139-1.788-3.578c-.444-.886-1.214-2.16-2.304-3.19C10.836 5.357 9.552 4.667 8 4.667c-3.352 0-6 2.652-6 5.84 0 2.422 1.108 4.132 3.736 6.74.674.668 1.442 1.39 2.292 2.186C10.244 21.513 13 24.101 16 27.561c3-3.46 5.756-6.048 7.972-8.128.85-.796 1.62-1.52 2.292-2.186C28.892 14.639 30 12.929 30 10.507c0-3.188-2.648-5.84-6-5.84-1.554 0-2.836.69-3.908 1.704-1.09 1.03-1.86 2.304-2.304 3.19L16 13.139zm.784 16.584a1.022 1.022 0 0 1-1.216.269 1.04 1.04 0 0 1-.352-.269c-3.202-3.804-6.1-6.524-8.486-8.762C2.6 17.083 0 14.645 0 10.507c0-4.33 3.58-7.84 8-7.84 3.2 0 5.438 2.1 6.808 4.016.52.73.916 1.432 1.192 1.984.346-.691.745-1.354 1.192-1.984C18.562 4.765 20.8 2.667 24 2.667c4.42 0 8 3.51 8 7.84 0 4.138-2.6 6.576-6.73 10.454-2.386 2.24-5.284 4.962-8.486 8.762z"/>
    </symbol>
    <!-- <symbol id="icon-heart-red" viewBox="0 0 32 32">
      <path   d="m16 13.139-1.788-3.578c-.444-.886-1.214-2.16-2.304-3.19C10.836 5.357 9.552 4.667 8 4.667c-3.352 0-6 2.652-6 5.84 0 2.422 1.108 4.132 3.736 6.74.674.668 1.442 1.39 2.292 2.186C10.244 21.513 13 24.101 16 27.561c3-3.46 5.756-6.048 7.972-8.128.85-.796 1.62-1.52 2.292-2.186C28.892 14.639 30 12.929 30 10.507c0-3.188-2.648-5.84-6-5.84-1.554 0-2.836.69-3.908 1.704-1.09 1.03-1.86 2.304-2.304 3.19L16 13.139zm.784 16.584a1.022 1.022 0 0 1-1.216.269 1.04 1.04 0 0 1-.352-.269c-3.202-3.804-6.1-6.524-8.486-8.762C2.6 17.083 0 14.645 0 10.507c0-4.33 3.58-7.84 8-7.84 3.2 0 5.438 2.1 6.808 4.016.52.73.916 1.432 1.192 1.984.346-.691.745-1.354 1.192-1.984C18.562 4.765 20.8 2.667 24 2.667c4.42 0 8 3.51 8 7.84 0 4.138-2.6 6.576-6.73 10.454-2.386 2.24-5.284 4.962-8.486 8.762z"/>
    </symbol> -->
    <symbol id="icon-heart-red" viewBox="0 0 24 24"><path fill="currentColor" d="M4.24 12.25a4.2 4.2 0 0 1-1.24-3A4.25 4.25 0 0 1 7.25 5c1.58 0 2.96.86 3.69 2.14h1.12A4.24 4.24 0 0 1 15.75 5A4.25 4.25 0 0 1 20 9.25c0 1.17-.5 2.25-1.24 3L11.5 19.5zm15.22.71C20.41 12 21 10.7 21 9.25A5.25 5.25 0 0 0 15.75 4c-1.75 0-3.3.85-4.25 2.17A5.22 5.22 0 0 0 7.25 4A5.25 5.25 0 0 0 2 9.25c0 1.45.59 2.75 1.54 3.71l7.96 7.96z"/></symbol>
  
    <symbol id="icon-nine-squares" viewBox="0 0 32 32">
      <path d="M6.857 2.286v4.571H2.286V2.286h4.571zm2.286 27.428v-4.571a2.287 2.287 0 0 0-2.285-2.285H2.287a2.287 2.287 0 0 0-2.285 2.285v4.571a2.287 2.287 0 0 0 2.285 2.285h4.571a2.287 2.287 0 0 0 2.285-2.285zm0-11.428v-4.571a2.287 2.287 0 0 0-2.285-2.285H2.287a2.287 2.287 0 0 0-2.285 2.285v4.571a2.287 2.287 0 0 0 2.285 2.285h4.571a2.287 2.287 0 0 0 2.285-2.285zm0-11.429V2.286A2.287 2.287 0 0 0 6.858.001H2.287A2.287 2.287 0 0 0 .002 2.286v4.571a2.287 2.287 0 0 0 2.285 2.285h4.571a2.287 2.287 0 0 0 2.285-2.285zm11.428 22.857v-4.571a2.287 2.287 0 0 0-2.285-2.285h-4.571a2.287 2.287 0 0 0-2.285 2.285v4.571a2.287 2.287 0 0 0 2.285 2.285h4.571a2.287 2.287 0 0 0 2.285-2.285zm0-11.428v-4.571a2.287 2.287 0 0 0-2.285-2.285h-4.571a2.287 2.287 0 0 0-2.285 2.285v4.571a2.287 2.287 0 0 0 2.285 2.285h4.571a2.287 2.287 0 0 0 2.285-2.285zm0-11.429V2.286A2.287 2.287 0 0 0 18.286.001h-4.571a2.287 2.287 0 0 0-2.285 2.285v4.571a2.287 2.287 0 0 0 2.285 2.285h4.571a2.287 2.287 0 0 0 2.285-2.285zm-2.285-4.571v4.571h-4.571V2.286h4.571zm11.428 0v4.571h-4.571V2.286h4.571zM6.857 13.714v4.571H2.286v-4.571h4.571zm11.429 0v4.571h-4.571v-4.571h4.571zm11.428 0h-4.571v4.571h4.571v-4.571zM6.857 25.143v4.571H2.286v-4.571h4.571zm11.429 0v4.571h-4.571v-4.571h4.571zm11.428 0v4.571h-4.571v-4.571h4.571zM25.143 0a2.287 2.287 0 0 0-2.285 2.285v4.571a2.287 2.287 0 0 0 2.285 2.285h4.571a2.287 2.287 0 0 0 2.285-2.285V2.285A2.287 2.287 0 0 0 29.714 0h-4.571zm-2.286 13.714a2.287 2.287 0 0 1 2.285-2.285h4.571a2.287 2.287 0 0 1 2.285 2.285v4.571a2.287 2.287 0 0 1-2.285 2.285h-4.571a2.287 2.287 0 0 1-2.285-2.285v-4.571zm2.286 9.143a2.287 2.287 0 0 0-2.285 2.285v4.571a2.287 2.287 0 0 0 2.285 2.285h4.571a2.287 2.287 0 0 0 2.285-2.285v-4.571a2.287 2.287 0 0 0-2.285-2.285h-4.571z"/>
    </symbol>
    <symbol id="icon-scheme" viewBox="0 0 32 32">
      <path d="M12 7a3.004 3.004 0 0 1 3-3h2a3.004 3.004 0 0 1 3 3v2a3.004 3.004 0 0 1-3 3v2h11a.997.997 0 0 1 1 1v2a.997.997 0 0 1-1 1 .997.997 0 0 1-1-1v-1H17v1a.997.997 0 0 1-1 1 .997.997 0 0 1-1-1v-1H5v1a.997.997 0 0 1-1 1 .997.997 0 0 1-1-1v-2a.997.997 0 0 1 1-1h11v-2a3.004 3.004 0 0 1-3-3V7zm5 3a.997.997 0 0 0 1-1V7a.997.997 0 0 0-1-1h-2a.997.997 0 0 0-1 1v2a.997.997 0 0 0 1 1h2zM0 23a3.004 3.004 0 0 1 3-3h2a3.004 3.004 0 0 1 3 3v2a3.004 3.004 0 0 1-3 3H3a3.004 3.004 0 0 1-3-3v-2zm3-1a.997.997 0 0 0-1 1v2a.997.997 0 0 0 1 1h2a.997.997 0 0 0 1-1v-2a.997.997 0 0 0-1-1H3zm9 1a3.004 3.004 0 0 1 3-3h2a3.004 3.004 0 0 1 3 3v2a3.004 3.004 0 0 1-3 3h-2a3.004 3.004 0 0 1-3-3v-2zm3-1a.997.997 0 0 0-1 1v2a.997.997 0 0 0 1 1h2a.997.997 0 0 0 1-1v-2a.997.997 0 0 0-1-1h-2zm9 1a3.004 3.004 0 0 1 3-3h2a3.004 3.004 0 0 1 3 3v2a3.004 3.004 0 0 1-3 3h-2a3.004 3.004 0 0 1-3-3v-2zm3-1a.997.997 0 0 0-1 1v2a.997.997 0 0 0 1 1h2a.997.997 0 0 0 1-1v-2a.997.997 0 0 0-1-1h-2z"/>
    </symbol>
    <symbol id="icon-shower" viewBox="0 0 32 32">
      <path d="M7.226 28.387a1.548 1.548 0 0 1-3.068.301 1.55 1.55 0 1 1 3.067-.303zm2.58-5.677a1.548 1.548 0 0 0-.301 3.068 1.549 1.549 0 1 0 .303-3.066zm-8.258 0a1.548 1.548 0 0 0-.301 3.068 1.549 1.549 0 1 0 .302-3.066zm4.129-4.129a1.548 1.548 0 0 0-.301 3.068 1.549 1.549 0 1 0 .302-3.066zM32 3.097a1.035 1.035 0 0 1-1.032 1.032h-3.702l-3.593 3.595-2.795 16.36a2.07 2.07 0 0 1-2.523 1.663 2.062 2.062 0 0 1-.973-.546L4.737 12.556A2.062 2.062 0 0 1 5.858 9.06l16.354-2.796 3.897-3.897a1.037 1.037 0 0 1 .73-.302h4.129A1.029 1.029 0 0 1 32 3.097zM21.447 8.489 6.194 11.097l12.645 12.645 2.608-15.253z"/>
    </symbol>
    <symbol id="icon-star" viewBox="0 0 32 32">
      <path fill="#f2f4f7" style="fill:var(--color4, #f2f4f7)" d="M15.116 2.676a1 1 0 0 1 1.769 0l3.777 7.158c.145.274.408.466.714.519l7.975 1.38a1 1 0 0 1 .547 1.682l-5.641 5.804a1 1 0 0 0-.273.839l1.152 8.01a1 1 0 0 1-1.431 1.04l-7.263-3.571a.998.998 0 0 0-.882 0l-7.262 3.571a1 1 0 0 1-1.431-1.04l1.152-8.01a1 1 0 0 0-.273-.839l-5.64-5.804a1 1 0 0 1 .547-1.682l7.974-1.38a.998.998 0 0 0 .714-.519l3.776-7.158z"/>
    </symbol>
    <symbol id="icon-star-gold" viewBox="0 0 32 32">
      <path fill="#ffc531" style="fill:var(--color5, #ffc531)" d="M15.116 1.676a1 1 0 0 1 1.769 0l3.777 7.158c.145.274.408.466.714.519l7.975 1.38a1 1 0 0 1 .547 1.682l-5.641 5.804a1 1 0 0 0-.273.839l1.152 8.01a1 1 0 0 1-1.431 1.04l-7.263-3.571a.998.998 0 0 0-.882 0l-7.262 3.571a1 1 0 0 1-1.431-1.04l1.152-8.01a1 1 0 0 0-.273-.839l-5.64-5.804a1 1 0 0 1 .547-1.682l7.974-1.38a.998.998 0 0 0 .714-.519l3.776-7.158z"/>
    </symbol>
    <symbol id="icon-tea" viewBox="0 0 32 32">
      <path d="M1 12a1.007 1.007 0 0 0-.779.374.997.997 0 0 0-.197.842l3.304 14.868A4.998 4.998 0 0 0 8.208 32h11.584a4.996 4.996 0 0 0 4.88-3.916l.262-1.18a6 6 0 0 0 2.601-11.708l.442-1.98A1.003 1.003 0 0 0 27.001 12h-26zm25 13a4.05 4.05 0 0 1-.632-.05l1.734-7.796A4.002 4.002 0 0 1 26 25zM5.28 27.65 2.246 14h23.508L22.72 27.65A2.995 2.995 0 0 1 19.792 30H8.208a2.998 2.998 0 0 1-2.928-2.35zM8.8 1.6l-.006.008-.028.038c-.146.2-.282.407-.408.62a4.003 4.003 0 0 0-.282.534c-.052.12-.068.184-.074.206v.008c.023.177.085.346.182.496.15.266.356.544.616.89l.02.024c.236.316.52.694.74 1.086.224.4.44.91.44 1.49 0 .376-.13.736-.238.988a6.142 6.142 0 0 1-.404.776 10.2 10.2 0 0 1-.506.764l-.036.05-.01.016-.004.004a1.004 1.004 0 0 1-1.4.202A1 1 0 0 1 7.2 8.4l.006-.008.028-.038c.146-.2.282-.407.408-.62.107-.171.202-.349.282-.534.052-.12.068-.184.074-.206a1.199 1.199 0 0 0-.18-.504A8.024 8.024 0 0 0 7.2 5.6l-.02-.024c-.27-.345-.517-.708-.74-1.086A3.066 3.066 0 0 1 6 3c0-.376.13-.736.238-.988.118-.276.268-.548.404-.776.159-.261.328-.516.506-.764l.05-.07A1.004 1.004 0 0 1 8.598.2 1.004 1.004 0 0 1 8.8 1.6zm6 0-.006.008-.028.038c-.146.2-.282.407-.408.62a4.003 4.003 0 0 0-.282.534c-.052.12-.068.184-.074.206v.008c.023.177.085.346.182.496.15.266.356.544.616.89l.02.024c.236.316.52.694.74 1.086.224.4.44.91.44 1.49 0 .376-.13.736-.238.988a6.142 6.142 0 0 1-.404.776 10.2 10.2 0 0 1-.506.764l-.036.05-.01.016-.004.004a1.004 1.004 0 0 1-1.4.202 1 1 0 0 1-.202-1.4l.006-.008.028-.038c.146-.2.282-.407.408-.62.107-.171.202-.349.282-.534.052-.12.068-.184.074-.206a1.199 1.199 0 0 0-.18-.504 8.024 8.024 0 0 0-.618-.89l-.02-.024c-.27-.345-.517-.708-.74-1.086A3.066 3.066 0 0 1 12 3c0-.376.13-.736.238-.988.118-.276.268-.548.404-.776.159-.261.328-.516.506-.764l.05-.07a1.004 1.004 0 0 1 1.4-.202 1 1 0 0 1 .202 1.4zm6 0-.006.008-.028.038c-.145.2-.282.407-.408.62a4.003 4.003 0 0 0-.282.534c-.052.12-.068.184-.074.206v.008c.023.177.085.346.182.496.15.266.356.544.616.89l.02.024c.236.316.52.694.74 1.086.224.4.44.91.44 1.49 0 .376-.13.736-.238.988a6.142 6.142 0 0 1-.404.776 9.875 9.875 0 0 1-.504.764l-.038.05-.01.016-.004.004a1.004 1.004 0 0 1-1.4.202 1 1 0 0 1-.202-1.4l.006-.008.028-.038c.145-.2.282-.407.408-.62.107-.171.202-.349.282-.534.052-.12.068-.184.074-.206a1.199 1.199 0 0 0-.18-.504 8.024 8.024 0 0 0-.618-.89l-.02-.024c-.27-.345-.517-.708-.74-1.086A3.066 3.066 0 0 1 18 3c0-.376.13-.736.238-.988.118-.276.268-.548.404-.776.159-.261.328-.516.506-.764l.05-.07a1.004 1.004 0 0 1 1.4-.202 1 1 0 0 1 .202 1.4z"/>
    </symbol>
    <symbol id="icon-three-squares" viewBox="0 0 32 32">
      <path d="M12 2H2v28h10V2zm18 0H20v10h10V2zm0 18v10H20V20h10zM0 2a2 2 0 0 1 2-2h10a2 2 0 0 1 2 2v28a2 2 0 0 1-2 2H2a2 2 0 0 1-2-2V2zm18 0a2 2 0 0 1 2-2h10a2 2 0 0 1 2 2v10a2 2 0 0 1-2 2H20a2 2 0 0 1-2-2V2zm2 16a2 2 0 0 0-2 2v10a2 2 0 0 0 2 2h10a2 2 0 0 0 2-2V20a2 2 0 0 0-2-2H20z"/>
    </symbol>
    
    <symbol id="icon-wind-blow" viewBox="0 0 32 32">
      <path d="M25 4a5 5 0 0 0-5 5 .997.997 0 0 1-1 1 .997.997 0 0 1-1-1 6.994 6.994 0 0 1 4.322-6.467 6.998 6.998 0 0 1 9.544 5.102 7.006 7.006 0 0 1-2.976 7.186 6.994 6.994 0 0 1-3.889 1.18h-24a.997.997 0 0 1-1-1 .997.997 0 0 1 1-1h24a5 5 0 0 0 0-10zM11 6a2 2 0 0 0-2 2 .997.997 0 0 1-1 1 .997.997 0 0 1-1-1 4.004 4.004 0 0 1 2.469-3.695A4 4 0 1 1 11 12H1a.997.997 0 0 1-1-1 .997.997 0 0 1 1-1h10a2 2 0 0 0 0-4zM0 19a.997.997 0 0 1 1-1h20.084a5.998 5.998 0 0 1 4.242 10.243 5.996 5.996 0 0 1-6.539 1.301 5.999 5.999 0 0 1-3.704-5.543.997.997 0 0 1 1-1 .997.997 0 0 1 1 1 4.004 4.004 0 0 0 2.469 3.695 4 4 0 1 0 1.531-7.695H.999a.997.997 0 0 1-1-1z"/>
    </symbol>
    <symbol id="icon-radio" viewBox="0 0 32 32">
<path d="M14 5c0-0.265 0.105-0.52 0.293-0.707s0.442-0.293 0.707-0.293h14c0.265 0 0.52 0.105 0.707 0.293s0.293 0.442 0.293 0.707v2c0 0.265-0.105 0.52-0.293 0.707s-0.442 0.293-0.707 0.293h-14c-0.265 0-0.52-0.105-0.707-0.293s-0.293-0.442-0.293-0.707v-2zM0 24c0-1.591 0.632-3.117 1.757-4.243s2.651-1.757 4.243-1.757 3.117 0.632 4.243 1.757c1.125 1.125 1.757 2.651 1.757 4.243s-0.632 3.117-1.757 4.243c-1.125 1.125-2.651 1.757-4.243 1.757s-3.117-0.632-4.243-1.757c-1.125-1.125-1.757-2.651-1.757-4.243zM14 21c0-0.265 0.105-0.52 0.293-0.707s0.442-0.293 0.707-0.293h14c0.265 0 0.52 0.105 0.707 0.293s0.293 0.442 0.293 0.707v2c0 0.265-0.105 0.52-0.293 0.707s-0.442 0.293-0.707 0.293h-14c-0.265 0-0.52-0.105-0.707-0.293s-0.293-0.442-0.293-0.707v-2zM14 11c0-0.265 0.105-0.52 0.293-0.707s0.442-0.293 0.707-0.293h10c0.265 0 0.52 0.105 0.707 0.293s0.293 0.442 0.293 0.707-0.105 0.52-0.293 0.707c-0.188 0.188-0.442 0.293-0.707 0.293h-10c-0.265 0-0.52-0.105-0.707-0.293s-0.293-0.442-0.293-0.707zM14 27c0-0.265 0.105-0.52 0.293-0.707s0.442-0.293 0.707-0.293h10c0.265 0 0.52 0.105 0.707 0.293s0.293 0.442 0.293 0.707-0.105 0.52-0.293 0.707c-0.188 0.188-0.442 0.293-0.707 0.293h-10c-0.265 0-0.52-0.105-0.707-0.293s-0.293-0.442-0.293-0.707zM6 2c-0.788 0-1.568 0.155-2.296 0.457s-1.389 0.744-1.947 1.301c-0.557 0.557-0.999 1.219-1.301 1.947s-0.457 1.508-0.457 2.296c0 0.788 0.155 1.568 0.457 2.296s0.744 1.389 1.301 1.947c0.557 0.557 1.219 0.999 1.947 1.301s1.508 0.457 2.296 0.457c1.591 0 3.117-0.632 4.243-1.757s1.757-2.651 1.757-4.243c0-1.591-0.632-3.117-1.757-4.243s-2.651-1.757-4.243-1.757zM6 11c-0.796 0-1.559-0.316-2.121-0.879s-0.879-1.326-0.879-2.121c0-0.796 0.316-1.559 0.879-2.121s1.326-0.879 2.121-0.879c0.796 0 1.559 0.316 2.121 0.879s0.879 1.326 0.879 2.121c0 0.796-0.316 1.559-0.879 2.121s-1.326 0.879-2.121 0.879z"></path>
</symbol>

  <symbol id="icon-gas" viewBox="0 0 24 24"><g fill="none" stroke="currentColor" stroke-linecap="round" stroke-linejoin="round" stroke-width="1.5" color="currentColor"><path d="M2 6c0-3.31.69-4 4-4h12c3.31 0 4 .69 4 4v12c0 3.31-.69 4-4 4H6c-3.31 0-4-.69-4-4zm4 13h4m8 .009V19"/><circle cx="12" cy="10" r="4"/><path d="M15.5 10H17m-5 3.5V15m-3.5-5H7m5-3.5V5"/></g></symbol>
  
  <symbol id="lucide--microwave" viewBox="0 0 24 24"><g fill="none" stroke="currentColor" stroke-linecap="round" stroke-linejoin="round" stroke-width="2"><rect width="20" height="15" x="2" y="4" rx="2"/><rect width="8" height="7" x="6" y="8" rx="1"/><path d="M18 8v7M6 19v2m12-2v2"/></g></symbol>
  
  <symbol id="icon-park-outline--manual-gear" viewBox="0 0 48 48"><g fill="none" stroke="currentColor" stroke-linecap="round" stroke-linejoin="round" stroke-width="4"><path d="M40 12v12H8m16-12v24M8 12v24"/><path d="M44 8a4 4 0 1 1-8 0a4 4 0 0 1 8 0M28 8a4 4 0 1 1-8 0a4 4 0 0 1 8 0M12 8a4 4 0 1 1-8 0a4 4 0 0 1 8 0m16 32a4 4 0 1 1-8 0a4 4 0 0 1 8 0m-16 0a4 4 0 1 1-8 0a4 4 0 0 1 8 0m28 4a4 4 0 1 0 0-8a4 4 0 0 0 0 8"/></g></symbol>
<symbol id="bi--fuel-pump" viewBox="0 0 16 16"><g fill="currentColor"><path d="M3 2.5a.5.5 0 0 1 .5-.5h5a.5.5 0 0 1 .5.5v5a.5.5 0 0 1-.5.5h-5a.5.5 0 0 1-.5-.5z"/><path d="M1 2a2 2 0 0 1 2-2h6a2 2 0 0 1 2 2v8a2 2 0 0 1 2 2v.5a.5.5 0 0 0 1 0V8h-.5a.5.5 0 0 1-.5-.5V4.375a.5.5 0 0 1 .5-.5h1.495c-.011-.476-.053-.894-.201-1.222a.97.97 0 0 0-.394-.458c-.184-.11-.464-.195-.9-.195a.5.5 0 0 1 0-1q.846-.002 1.412.336c.383.228.634.551.794.907c.295.655.294 1.465.294 2.081v3.175a.5.5 0 0 1-.5.501H15v4.5a1.5 1.5 0 0 1-3 0V12a1 1 0 0 0-1-1v4h.5a.5.5 0 0 1 0 1H.5a.5.5 0 0 1 0-1H1zm9 0a1 1 0 0 0-1-1H3a1 1 0 0 0-1 1v13h8z"/></g></symbol>
<symbol id="icon-water" viewBox="0 0 1024 1024" fill="currentColor">
<path fill="none"  stroke-linejoin="miter" stroke-linecap="butt" stroke-miterlimit="10" stroke-width="64" stroke="#000" d="M800 640c0 176.739-111.261 288-288 288s-288-111.261-288-288c0-189.661 206.461-445.7 269.779-519.76 2.253-2.631 5.050-4.744 8.195-6.192 3.149-1.448 6.573-2.198 10.035-2.198 3.466 0 6.886 0.75 10.035 2.198 3.146 1.448 5.942 3.561 8.195 6.192 63.299 74.060 269.76 330.1 269.76 519.76z"></path>
<path fill="none" stroke-linejoin="round" stroke-linecap="round" stroke-miterlimit="4" stroke-width="64" stroke="#000" d="M688 656c0 38.192-15.171 74.819-42.176 101.824s-63.632 42.176-101.824 42.176"></path>
</symbol>
<symbol id="carbon--hybrid-networking" viewBox="0 0 32 32"><path fill="currentColor" d="M17 24.184V20h-2v4.184a3 3 0 1 0 2 0"/><path fill="currentColor" d="M26 12a3.996 3.996 0 0 0-3.858 3H9.858a4 4 0 1 0 0 2h12.284A3.993 3.993 0 1 0 26 12M6 18a2 2 0 1 1 2-2a2.003 2.003 0 0 1-2 2m20 0a2 2 0 1 1 2-2a2.003 2.003 0 0 1-2 2"/><path fill="currentColor" d="M19 5a3 3 0 1 0-4 2.816V12h2V7.816A2.99 2.99 0 0 0 19 5"/></symbol>
<symbol id="material-symbols--electric-car-outline" viewBox="0 0 24 24"><path fill="currentColor" d="M6 15v1q0 .425-.288.713T5 17H4q-.425 0-.712-.288T3 16V8l2.1-6q.15-.45.538-.725T6.5 1h11q.475 0 .863.275T18.9 2L21 8v8q0 .425-.287.713T20 17h-1q-.425 0-.712-.288T18 16v-1zm-.2-9h12.4l-1.05-3H6.85zM5 8v5zm2.5 4q.625 0 1.063-.437T9 10.5t-.437-1.062T7.5 9t-1.062.438T6 10.5t.438 1.063T7.5 12m9 0q.625 0 1.063-.437T18 10.5t-.437-1.062T16.5 9t-1.062.438T15 10.5t.438 1.063T16.5 12M13 23l-6-3h4v-2l6 3h-4zM5 13h14V8H5z"/></symbol>
<symbol id="bi--fuel-pump-diesel" viewBox="0 0 16 16"><g fill="currentColor"><path d="M3.5 2a.5.5 0 0 0-.5.5v5a.5.5 0 0 0 .5.5h5a.5.5 0 0 0 .5-.5v-5a.5.5 0 0 0-.5-.5zM4 14V9h1.796q.75 0 1.237.293t.725.85Q8 10.7 8 11.487q0 .792-.242 1.355a1.8 1.8 0 0 1-.732.861Q6.54 14 5.796 14zm1.666-4.194h-.692v3.385h.692q.343 0 .595-.103a1 1 0 0 0 .412-.315q.162-.213.241-.528q.084-.314.083-.74q0-.565-.144-.94a1.1 1.1 0 0 0-.436-.569q-.293-.19-.75-.19Z"/><path d="M3 0a2 2 0 0 0-2 2v13H.5a.5.5 0 0 0 0 1h11a.5.5 0 0 0 0-1H11v-4a1 1 0 0 1 1 1v.5a1.5 1.5 0 0 0 3 0V8h.5a.5.5 0 0 0 .5-.5V4.324c0-.616 0-1.426-.294-2.081a1.97 1.97 0 0 0-.794-.907Q14.345.999 13.5 1a.5.5 0 0 0 0 1c.436 0 .716.086.9.195a.97.97 0 0 1 .394.458c.147.328.19.746.201 1.222H13.5a.5.5 0 0 0-.5.5V7.5a.5.5 0 0 0 .5.5h.5v4.5a.5.5 0 0 1-1 0V12a2 2 0 0 0-2-2V2a2 2 0 0 0-2-2zm7 2v13H2V2a1 1 0 0 1 1-1h6a1 1 0 0 1 1 1"/></g></symbol>
    <!-- <symbol id="icon-truck" viewBox="0 0 32 32">
      <path d="M26.969 13H23.99l-.013 1.256c.598.341.992.989.992 1.744l.042 6.938H6.031V16c0-.738.404-1.376 1-1.723V13h-3a1 1 0 0 1-1-1v-1a1 1 0 0 1 1-1h1v2h2V9a2 2 0 0 1 2-2h13a2 2 0 0 1 2 2L24 12h1.969v-2h1a1 1 0 0 1 1 1v1a1 1 0 0 1-1 1zm-14.938 9h7v-1h-7v1zm0-2h7v-1h-7v1zm0-2h7v-1h-7v1zm-4 3a1 1 0 0 0 1 1h1a1 1 0 0 0 0-2h-1a1 1 0 0 0-1 1zm14-11a1 1 0 0 0-1-1h-11a1 1 0 0 0-1 1v5h13v-5zm0 10h-1a1 1 0 1 0 0 2h1a1 1 0 0 0 0-2zm1-14h-15a2 2 0 0 0-2 2V3a1 1 0 0 1 1-1h17a1 1 0 0 1 1 1v5a2 2 0 0 0-2-2zm2 18.938a1 1 0 0 1-1 1h-17a1 1 0 0 1-1-1v-1h19v1zm-14 4.062a1 1 0 0 1-1 1h-1a1 1 0 0 1-1-1v-2h3v2zm12 0a1 1 0 0 1-1 1h-1a1 1 0 0 1-1-1v-2h3v2z"/>
    </symbol> -->
  </defs>
</svg>