<svg xmlns="http://www.w3.org/2000/svg" width="1024" height="1024">
  <path d="M863.008 416H767.68l-.416 40.192C786.4 467.104 799.008 487.84 799.008 512l1.344 222.016h-607.36V512c0-23.616 12.928-44.032 32-55.136V416h-96c-17.696 0-32-14.336-32-32v-32c0-17.696 14.304-32 32-32h32v64h64v-96c0-35.328 28.672-64 64-64h416c35.328 0 64 28.672 64 64L768 384h63.008v-64h32c17.664 0 32 14.304 32 32v32c0 17.664-14.336 32-32 32zM384.992 704h224v-32h-224v32zm0-64h224v-32h-224v32zm0-64h224v-32h-224v32zm-128 96c0 17.664 14.304 32 32 32h32c17.664 0 32-14.336 32-32 0-17.696-14.336-32-32-32h-32c-17.664 0-32 14.304-32 32zm448-352c0-17.696-14.304-32-32-32h-352c-17.696 0-32 14.304-32 32v160h416V320zm0 320h-32c-17.696 0-32 14.304-32 32 0 17.664 14.304 32 32 32h32c17.664 0 32-14.336 32-32 0-17.696-14.336-32-32-32zm32-448h-480c-35.328 0-64 28.672-64 64V96c0-17.696 14.304-32 32-32h544c17.664 0 32 14.304 32 32v160c0-35.328-28.64-64-64-64zm64 606.016c0 17.664-14.336 32-32 32h-544c-17.696 0-32-14.336-32-32v-32h608v32zM352.992 928c0 17.664-14.336 32-32 32h-32c-17.696 0-32-14.336-32-32v-64h96v64zm384 0c0 17.664-14.336 32-32 32h-32c-17.696 0-32-14.336-32-32v-64h96v64z"/>
</svg>
